<svg xmlns="http://www.w3.org/2000/svg" viewBox="0 0 28.11 3.1"><g id="Layer_2" data-name="Layer 2"><g id="Layer_1-2" data-name="Layer 1"><g id="Layer13_0_FILL" data-name="Layer13 0 FILL"><path d="M28,1.06a.84.84,0,0,0-.87-.55,3.34,3.34,0,0,0-1.1.09,17.1,17.1,0,0,1-5.5.24A22.75,22.75,0,0,0,17.08.47,29.87,29.87,0,0,1,13.52.7C12.09.51,11,.38,10.32.31a36.54,36.54,0,0,0-4,0,24.44,24.44,0,0,1-4-.17A3.88,3.88,0,0,0,1,0,1.15,1.15,0,0,0,0,.84,1,1,0,0,0,.65,2,3.05,3.05,0,0,0,2,2.31a42.22,42.22,0,0,0,5.05.07,23.53,23.53,0,0,1,3.37,0c.52,0,1.31.16,2.38.35a25.1,25.1,0,0,0,3.8-.15,29.62,29.62,0,0,1,3.61.29,19.58,19.58,0,0,0,3.6.17,17.25,17.25,0,0,0,2.54-.37,4.48,4.48,0,0,0,1.27-.46A1,1,0,0,0,28,1.06Z"/></g></g></g></svg>