<svg xmlns="http://www.w3.org/2000/svg" viewBox="0 0 101.62 156.07">
    <g id="Layer_1-2" data-name="Layer 1" class="svg-fill-primary">
        <path
            d="M58.79,3.59c-3-1.53-4.82-2.4-5.35-2.6A12.88,12.88,0,0,0,47.69,0,11.13,11.13,0,0,0,44,1.09c-.8.37-1.93,1-3.4,1.85l-8.95,5.4q-9.15,5.5-10,6.15A42.44,42.44,0,0,0,13,23.89,83.63,83.63,0,0,0,7.24,35a3,3,0,0,0-.25.9c-2.93.54-4.78,1.55-5.55,3.05a7.69,7.69,0,0,0-.55,2.85L.09,53.19a21.53,21.53,0,0,0,.05,4.5,6.6,6.6,0,0,0,1.8,3.8A6.58,6.58,0,0,0,5.49,63a12.08,12.08,0,0,0,1.35.15,2.14,2.14,0,0,0,0,.45v1.15a3.81,3.81,0,0,0-3.35.7,4.76,4.76,0,0,0-1,2.9,27.25,27.25,0,0,0,.1,8.8l.8,3a47.22,47.22,0,0,1,.75,5c.23,2.4.43,4.09.6,5a56.9,56.9,0,0,0,2.65,8.9c.37,1.07.82,1.69,1.35,1.85a1.75,1.75,0,0,0,1.75-.4,2.16,2.16,0,0,0,.4-.4,82.66,82.66,0,0,0,8,24,162.12,162.12,0,0,0,8.3,13.95l4.65,7.2a44,44,0,0,0,3.15,4.4A13.19,13.19,0,0,0,39,153a16,16,0,0,0,3.6,1.25,36.7,36.7,0,0,0,6.75,1.1,58.59,58.59,0,0,0,9.8-.75,29.65,29.65,0,0,0,5.1-1,12.71,12.71,0,0,0,4.1-2.25,17.07,17.07,0,0,0,2.55-2.6c.37-.43,1.1-1.4,2.2-2.9,1.5-2.16,2.47-3.65,2.9-4.45q.3-.49,2.6-5.4.64-1.25,2.75-4.9a50,50,0,0,0,2.6-5,49.8,49.8,0,0,0,2.25-7,73.54,73.54,0,0,1,2.1-7.1l2.2-5.3q.65-1.89,1.35-4.5l1-3.55a1.18,1.18,0,0,0,.25.1,1.89,1.89,0,0,0,1.9-.55,5.28,5.28,0,0,0,1.2-1.7,30.53,30.53,0,0,0,2.1-7.05c.53-3.26,1-5.7,1.35-7.3a50.18,50.18,0,0,0,1.85-7.85q.6-4.74-1.6-7.7a4.62,4.62,0,0,0-1-1,5.34,5.34,0,0,0-2.6-.6,13,13,0,0,0-2.5.35c-.17,0-.25-.08-.25-.35v-2.1a5.52,5.52,0,0,0,2.25-.4,3.33,3.33,0,0,0,1.65-.9,5.9,5.9,0,0,0,.85-1.25l.4-.85a10.56,10.56,0,0,0,.7-3.4,6,6,0,0,0,0-.85,42.55,42.55,0,0,1,.8-7c.43-2,.68-3.31.75-4a7.56,7.56,0,0,0-.5-3.8c-.73-1.73-2.37-3-4.9-3.85l-1.35-3.25c-.47-.93-.92-1.8-1.35-2.6t-.9-1.95l-2.1-2.65a4.61,4.61,0,0,0-.9-1c-1-.73-1.68-1.28-2.15-1.65-.8-.76-1.42-1.31-1.85-1.65q-1.65-1-2.4-1.65L79,17.49c-1.47-1.3-2.58-2.25-3.35-2.85l-1.45-1.05A69.16,69.16,0,0,0,69,9a39.4,39.4,0,0,0-5-2.9c-2.33-1.06-4.07-1.9-5.2-2.5M42,4.49a16.36,16.36,0,0,1,5.45-2.3A11,11,0,0,1,53.14,3q.75.3,5.2,2.6l3.75,1.8a30.19,30.19,0,0,1,3.7,2q1.3.86,3.7,2.75l11.05,9.1c1,.8,1.68,1.29,1.95,1.45a8.38,8.38,0,0,1,1.2.8,11.78,11.78,0,0,1,1.15,1.05q.41.36,1.35,1.05a12.26,12.26,0,0,1,1.35,1.1,7.83,7.83,0,0,1,.95,1.1l.65.85c.43.77.92,1.69,1.45,2.75.93,1.84,1.48,3,1.65,3.4l1.7,3.1a4.35,4.35,0,0,1,.6,1.35l.2.5.15.15-5.4,1a114.16,114.16,0,0,1-12.75,1.35q-4.3.21-12.9.3c-2.87.07-5.33,0-7.4-.1l-7.1-.6-11.5-1q-2.45-.2-6.3-.3c-3.4-.1-5.5-.16-6.3-.2a97,97,0,0,1-14.1-1.7A12.86,12.86,0,0,1,8.79,38a2.72,2.72,0,0,0,.2-.35l.35-1.3a8.21,8.21,0,0,0,.6-1.65,10.47,10.47,0,0,1,1-2.5c.77-1.7,1.38-3,1.85-3.85a38.28,38.28,0,0,1,9.2-11.3,40.32,40.32,0,0,1,4.65-3.2Q34.84,8.7,42,4.49M24.64,42.34q1.8.1,6.75.25,4.24.1,6.75.3l3.9.35q2.1.25,6.35.6l8.8.75q2.2.1,6.6,0l7-.15q9.19-.24,15.8-.95c1.8-.2,3.17-.4,4.1-.6l2.2-.6c.87-.23,1.58-.4,2.15-.5a21.66,21.66,0,0,0,3.25-.55.12.12,0,0,0,.1-.05,5.45,5.45,0,0,1,.5,3c-.07.67-.3,1.9-.7,3.7a31.4,31.4,0,0,0-.85,8.45v.1a9.74,9.74,0,0,1-.6,2.5s-.38.17-1,.5A30.88,30.88,0,0,1,92,60.84a4.06,4.06,0,0,0-.9.35c-1.1.3-2.28.57-3.55.8a165.41,165.41,0,0,1-17.85,1.6q-15.34.75-23.5.75A177,177,0,0,1,22.79,63q-3.15-.39-5.7-.95a39.89,39.89,0,0,0-4.2-.8c-.77,0-2-.13-3.7-.3s-2.57-.33-2.8-.4C4.26,60,3.07,59.48,2.84,59.14Q1.68,57.55,2,53.89a111.53,111.53,0,0,1,1.5-12.25,5,5,0,0,1,.9-2.3,2.15,2.15,0,0,1,.8-.55,2.68,2.68,0,0,1,.45.05,4.5,4.5,0,0,1,1.15.45c.23.1.6.29,1.1.55a20,20,0,0,0,3.2.9,95,95,0,0,0,13.55,1.6m-14.5,20.8a34.82,34.82,0,0,1,4.2.45l4.15.8A100.43,100.43,0,0,0,31.74,66q4.75.26,13.4.35l11.65-.15q14.75-.6,17.9-.8a93.74,93.74,0,0,0,15.8-1.9l1-.2,0,3.95a4.14,4.14,0,0,0-.55,1.5s0,.77,0,2.2a18,18,0,0,1-.25,3.35v.55a2.47,2.47,0,0,0,.45,1.2,6,6,0,0,1,.55.95c.1.07.33-.13.7-.6a2.93,2.93,0,0,0,.65-1.3,5.5,5.5,0,0,0,0-1c-.07-1-.1-1.78-.1-2.25a4.56,4.56,0,0,1,.3-1.85,5.89,5.89,0,0,1,1.45-2.15,2.62,2.62,0,0,1,2.4-.65,3.36,3.36,0,0,1,2,2.6,12.44,12.44,0,0,1,0,5.9c-.27,1.3-.78,3.22-1.55,5.75-.37,1.64-.8,4.1-1.3,7.4a25.87,25.87,0,0,1-2.25,7c-.23.34-.4.52-.5.55q-2.1-3.64-2-4.9c0-.3,0-.38,0-.25l-.45,1.1a5.14,5.14,0,0,0-.35,1.25,2.26,2.26,0,0,0,0,1c.1.2.23.5.4.9a2.83,2.83,0,0,1,.3.65,1.43,1.43,0,0,1-.15,1.1,1.3,1.3,0,0,1-.25.35l-.8,3a43.72,43.72,0,0,1-1.4,4.65q-.6,1.71-2.1,5a68.37,68.37,0,0,0-2.15,7.1,55.57,55.57,0,0,1-2.15,7.1,37.33,37.33,0,0,1-2.45,4.9q-1.65,2.76-2.4,4.15c-.4.74-1,1.95-1.8,3.65a34.85,34.85,0,0,1-1.8,3.6,60,60,0,0,1-4,5.8,16.76,16.76,0,0,1-3.75,3.9A11.57,11.57,0,0,1,62,152.09l-4.55.6a47,47,0,0,1-6.25.75,33.51,33.51,0,0,1-7.2-.95,19,19,0,0,1-4.85-1.7,10.66,10.66,0,0,1-2.85-2.55q-.7-.84-2.25-3.15l-2.95-4.55q-6.19-9.49-9.25-15.1A79.84,79.84,0,0,1,15,109.19l-2-7a69.25,69.25,0,0,0-1.05-7.5,3,3,0,0,0-.25-.55.9.9,0,0,0-1-.4.84.84,0,0,0-.45.25,1.64,1.64,0,0,0-.05.8l.15,1.9a1.48,1.48,0,0,0-.25.35,5.89,5.89,0,0,1-.7,1.2,30.29,30.29,0,0,1-2.35-7c-.27-1.23-.68-4.13-1.25-8.7q-.15-1.5-.45-3l-.7-2.8a19.88,19.88,0,0,1,.2-9.7,1.49,1.49,0,0,1,.75-.3l.1.1,1.6,1.3.8.9c.33.44.7,1,1.1,1.65l.35,1c.27.7.52,1.09.75,1.15a1.92,1.92,0,0,0,1.7,0,1.27,1.27,0,0,0,.45-.5q-1.35-4.65-3.6-6.7v-2.5s.08,0,.15,0,0-.06,0-.1a9.94,9.94,0,0,0,1.15,0m87.15,13a3.28,3.28,0,0,0,.2-1,1.3,1.3,0,0,0-.6-1.15c-.53-.26-.93-.2-1.2.2a2.11,2.11,0,0,0-.3.9,14.61,14.61,0,0,1-.6,2.35,15.15,15.15,0,0,0-.6,2.35c0,.24,0,.89,0,2a7.35,7.35,0,0,1,0,1.15,4,4,0,0,1-.7,1.3,3,3,0,0,0-.5.8l-.15.85a2,2,0,0,0,.45,1.5.76.76,0,0,0,.9.2.91.91,0,0,0,.65-.65,4.54,4.54,0,0,1,.1-1.15,6,6,0,0,1,.6-.9,4,4,0,0,0,.55-1.1,6,6,0,0,0,.15-1.85,18.71,18.71,0,0,1,0-1.9,6.83,6.83,0,0,1,.35-1.4l.75-2.5M44.89,133c-.2-.06-1.1-.43-2.7-1.1a2.61,2.61,0,0,0-.95-.2,1,1,0,0,0-.85.7,1.08,1.08,0,0,0,.25,1.1,1.88,1.88,0,0,0,.75.45c.2.07.52.15,1,.25a20.19,20.19,0,0,1,2.65.95,10.56,10.56,0,0,0,4.8.4c1.8-.33,2.83-.5,3.1-.5a19.27,19.27,0,0,1,2.4.2l3,.1a10.82,10.82,0,0,0,5.75-1.1,2.61,2.61,0,0,0,1.1-1.05,1.74,1.74,0,0,0,0-.85.94.94,0,0,0-.5-.5,1.34,1.34,0,0,0-1,0l-.9.65a5.69,5.69,0,0,1-3.15.9c-.63,0-1.83-.11-3.6-.25a23.46,23.46,0,0,0-3.5-.1,19.37,19.37,0,0,1-4.6.5,8.47,8.47,0,0,1-3-.6m.65-24.75a.91.91,0,0,0-.55-.5,1,1,0,0,0-.75,0c-.37.17-.65.64-.85,1.4a44,44,0,0,1-1.9,4.8,19.55,19.55,0,0,0-.9,2.4,4,4,0,0,0,.1,2.5,2.77,2.77,0,0,0,1.2,1.4l3.15,2a3.84,3.84,0,0,1,.65.6,6.53,6.53,0,0,0,4.3,1.3,7.5,7.5,0,0,0,3-1.1,6.6,6.6,0,0,0,2-1.35,1.92,1.92,0,0,1,.7-.45l.85-.6a6.08,6.08,0,0,0,.65-.25,2.77,2.77,0,0,0,1.25-1.1,1.1,1.1,0,0,0,0-.8.88.88,0,0,0-.6-.55,1.13,1.13,0,0,0-.85.2l-.85.5c-.1,0-.47.14-1.1.3a3.17,3.17,0,0,0-1.15.85,10.92,10.92,0,0,1-1,1,4.67,4.67,0,0,1-2.8,1.2,4.58,4.58,0,0,1-3-.7,12.19,12.19,0,0,1-1.5-1.25A5,5,0,0,0,44,119a3.35,3.35,0,0,1-1.35-.7,2,2,0,0,1,0-1.65c.27-.83.73-2,1.4-3.55a29.76,29.76,0,0,0,1.4-3.55,1.84,1.84,0,0,0,.1-1.3M8.69,77.64A7.33,7.33,0,0,1,8,76.29a3.16,3.16,0,0,0-.4-.75.78.78,0,0,0-.75-.3.88.88,0,0,0-.75.35A1.34,1.34,0,0,0,6,76.94a6.05,6.05,0,0,0,.6,1.1,8.62,8.62,0,0,1,.6,1,8.72,8.72,0,0,1,.5,2.5A7.38,7.38,0,0,0,8.14,84l.3.65a3.17,3.17,0,0,1,.1,1v2.25a3.79,3.79,0,0,0,.15,1.25,1.22,1.22,0,0,0,.9.85.81.81,0,0,0,1.05-.5,3.49,3.49,0,0,0,0-1.25l-.1-1.55a7.39,7.39,0,0,0-.2-2.75l-.4-.85a5.64,5.64,0,0,1-.25-1.15l-.35-3A7.1,7.1,0,0,0,8.69,77.64Z" />
        <path
            d="M13.69,100l-.9-2.6c-.1-.36-.28-1.51-.55-3.45a31.46,31.46,0,0,0-.6-3.9c-.2-1.13-.42-1.66-.65-1.6a1.32,1.32,0,0,0-.65.6,2.28,2.28,0,0,0-.1.8l-.05,5q0,1.05,1.1,7.85a67.68,67.68,0,0,0,1.85,7.3q1.3,4.45,2.8,8.65,2.1,5.51,3,7.3c.57,1.07,1.58,2.74,3.05,5a49.75,49.75,0,0,1,2.95,5,39,39,0,0,0,2.25,3.75q1.55,2.4,2.45,3.6c.57.77,1.83,2.32,3.8,4.65.43.5,1,1.22,1.8,2.15a9,9,0,0,0,1.65,1.65,19.2,19.2,0,0,0,4.7,2.35,26.93,26.93,0,0,0,4,1.25,32.89,32.89,0,0,0,14.2-.1,27.53,27.53,0,0,0,6.85-2.2,11.84,11.84,0,0,0,2.5-1.8c.23-.2,1-.91,2.2-2.15a79.7,79.7,0,0,0,8-10.55,45.17,45.17,0,0,0,4.6-8.8q1.4-3.45,3.3-9.45c.87-2.8,1.48-4.91,1.85-6.35q1.3-4.95,1.9-7.3,1.1-4.14,1.85-8a17.33,17.33,0,0,0,.3-4.55,8.31,8.31,0,0,1-.15-1c-.1-.7-.18-1.73-.25-3.1,0-.53.07-1,.1-1.25q0-.9-.15-.9a1.42,1.42,0,0,0-.7.1,3.86,3.86,0,0,0-.9,2.25,15.15,15.15,0,0,0-.2,2,7.57,7.57,0,0,1-.15,1.4,1.6,1.6,0,0,0,0,.5,6,6,0,0,0-.15,1,9.59,9.59,0,0,1-.4,2.15,22.56,22.56,0,0,1-2,4.25Q86,104.74,83,110.34q-4.15,7.56-7.9,10.9c-1.6,1.44-2.53,2.32-2.8,2.65a5,5,0,0,0-1.4,3.5c0,.4.15,1.2.35,2.4a10.91,10.91,0,0,1,.2,2.35,3.34,3.34,0,0,1-.15,1c-.1.27-.3.34-.6.2a1.33,1.33,0,0,1-.6-.8c-.5-1-1-2-1.5-2.8q-3-5-7.15-6.4a13.21,13.21,0,0,0-3.2-.6c-.67,0-1.75,0-3.25,0a7,7,0,0,0-2.45,1.05,6.5,6.5,0,0,1-2.45,1.1,7.73,7.73,0,0,1-2.65-.8,8.25,8.25,0,0,0-2.65-.8l-2.6.35c-2.6.4-4.37,1.14-5.3,2.2a8.09,8.09,0,0,0-1.45,3.25,26.51,26.51,0,0,1-1,3.5c-.13.34-.32.5-.55.5s-.37-.2-.5-.6a15.77,15.77,0,0,1-.35-3.6,9.58,9.58,0,0,0-.5-3.5,11.75,11.75,0,0,0-3-3.6A91,91,0,0,1,20,112a32.75,32.75,0,0,1-6.35-12m28,32.9c.27-.13.67-.35,1.2-.65a6.33,6.33,0,0,1,2.6-.9l2.8-.45a8.59,8.59,0,0,0,3.35-1.75A7.08,7.08,0,0,0,54.94,131a26.37,26.37,0,0,0,4.8,1.05c1.23.17,2,.29,2.35.35a4.43,4.43,0,0,1,2,1,1.51,1.51,0,0,1,.55.8c0,.14.1.44.2.9a3.09,3.09,0,0,1,0,.9,5.86,5.86,0,0,0,0,1.05,2.31,2.31,0,0,1,0,1A4.88,4.88,0,0,1,63.69,140a4.67,4.67,0,0,1-1.25,1,7.73,7.73,0,0,1-2.7.6l-1.4.3a1.29,1.29,0,0,1-1.2-.35,5.67,5.67,0,0,1,.7-1.5,3.89,3.89,0,0,0,.6-1.55,1.5,1.5,0,0,0-.2-.95c-.1-.1-.37-.33-.8-.7a6,6,0,0,0-1.7-.95,15.51,15.51,0,0,0-1.65-.4,10.2,10.2,0,0,0-1.85-.1c-.8.07-1.27.12-1.4.15a6.68,6.68,0,0,0-1.65.6,4.11,4.11,0,0,0-.9.9,3.13,3.13,0,0,0-.65,1.45,2.32,2.32,0,0,0,.5,1.9q.55.56.45.6a2.33,2.33,0,0,1-2.05.75l-1.95-.1a4.63,4.63,0,0,1-1.3-.2,3.52,3.52,0,0,1-2-.7,3,3,0,0,1-1-1.95,6.33,6.33,0,0,1-.1-2l.1-.85c.27-1.3.43-2,.5-2.2A2.05,2.05,0,0,1,41.64,132.94Z" />
        <path
            d="M38.29,94.84a3.08,3.08,0,0,0-1.25-.5,27.55,27.55,0,0,0-8.25-.9l-2.75.1a2.66,2.66,0,0,0-1.7.5.77.77,0,0,0,.05,1.2,1.83,1.83,0,0,0,1.6.35c.9-.07,1.73-.1,2.5-.1a35.48,35.48,0,0,1,6.35.15,7.11,7.11,0,0,1,2,.75,2.64,2.64,0,0,0,1.3.25c.37,0,.6-.27.7-.7A1.14,1.14,0,0,0,38.29,94.84Zm38.2.4a2.49,2.49,0,0,0-1.1-.35l-2-.45c-.83-.13-1.53-.22-2.1-.25-.37,0-1,.12-1.9.25A62.56,62.56,0,0,0,63,95.89a2.85,2.85,0,0,0-1.1.5,1.16,1.16,0,0,0-.45,1.1.76.76,0,0,0,.45.65,1.17,1.17,0,0,0,1,.1s1.86-.68,2.65-.95a26.13,26.13,0,0,1,5.75-1,5.51,5.51,0,0,1,2.05.15l1.85.5a2.05,2.05,0,0,0,1.1,0,1,1,0,0,0,.6-.85A.91.91,0,0,0,76.49,95.24Z" />
        <path
            d="M41.44,92.79a0,0,0,0,0,0,0h0v0m16.8-4.1.1.45c.5.67.93,1,1.3,1.1a7.06,7.06,0,0,0,2.1.1l1.2-.2,2-.55,1.75-.25,4.1-1.15q.4-.09,2.7-.45a30.2,30.2,0,0,1,5.35.1q1.05.06,3.15,0c1,.1,1.58,0,1.85-.45a1,1,0,0,0,0-1.15,1.45,1.45,0,0,0-.75-.9q-1.95-.75-5.25-1.9a12.15,12.15,0,0,0-4.75-.55c-.8,0-2,.17-3.5.4a42.31,42.31,0,0,0-10.3,2.55,2.73,2.73,0,0,0-1,.7,1.51,1.51,0,0,0,0,2.15M17.89,84a6.05,6.05,0,0,0-1.05.45,1.35,1.35,0,0,0-.55,1.15,1.52,1.52,0,0,0,1.25,1.3,4.49,4.49,0,0,0,1.8.1,17.08,17.08,0,0,1,7.7,1.3l.1.1a.16.16,0,0,1,.1,0,13.51,13.51,0,0,0,2.65.85l4.8,1a11.41,11.41,0,0,0,3.7-.1,2.38,2.38,0,0,0,.5-.15,4.1,4.1,0,0,0,1.8-1.8,1.79,1.79,0,0,0,.45-1,1,1,0,0,0-.7-.6,19.94,19.94,0,0,0-3.65-.95c-1.7-.16-3-.33-3.85-.5a26.82,26.82,0,0,1-3.9-1.1l-3.2-1.1a8.12,8.12,0,0,0-2.9-.55,5.8,5.8,0,0,0-1.6.45,15.58,15.58,0,0,1-1.7.6A9.9,9.9,0,0,0,17.89,84Z" />
    </g>
</svg>