<svg xmlns="http://www.w3.org/2000/svg" viewBox="0 0 191.13 341.58">
    <path class="cls-1"
        d="M88.66.32a.71.71,0,0,0-.85.15,1.78,1.78,0,0,0-.25,1.1c.07,7,.16,12.25.3,15.75q.26,6.51.65,22.2L90,59.77c.17,1.77.25,3.37.25,4.8,0,.2-.07,1.54-.2,4a26.36,26.36,0,0,0,0,4c.06.47.17,1.15.3,2.05a17,17,0,0,1,.15,2,51.45,51.45,0,0,1-.3,6.1,34.64,34.64,0,0,0,0,4.4q.69,12.9.4,19.3-.11,1.86-.65,6.6-.45,4.16-.5,6.55c0,.74,0,1.95,0,3.65q0,2.31,0,3.6-.1,3-.15,8.5c-.07,3.5-.08,5.37-.05,5.6q.2,2.25.35,7.35c.07,3.3.18,5.75.35,7.35q1.2,12.71,1.1,19.05c0,2.64-.23,6.57-.6,11.8a64.81,64.81,0,0,0,.3,11.7l.45,2.7c.13,1.07.22,2,.25,2.7a31.35,31.35,0,0,1-.35,5q-1.11,9.6-1.45,23.8a127.2,127.2,0,0,0,.55,19.7,3.17,3.17,0,0,0,.15.7,6.4,6.4,0,0,0-2.7,1.55l-1.1,1.6a5.12,5.12,0,0,0-.6,1.4c-.07.24-.15.59-.25,1.05a2,2,0,0,1-.4,1,2.78,2.78,0,0,0-.55.61,3.41,3.41,0,0,0-.5,2v.19q-2.61.56-6.7,1.81-12.6,3.89-19,6.25a136.42,136.42,0,0,0-18.3,8A42.91,42.91,0,0,0,36,281c-.57.41-1.38,1-2.45,1.95s-1.93,1.55-2.5,1.95c-2.2,1.34-3.82,2.35-4.85,3.05a45.58,45.58,0,0,0-7.2,6.5q-5.46,6-6.7,7.1a11.76,11.76,0,0,0-1.65,2.15A41.09,41.09,0,0,0,1.46,307a3.68,3.68,0,0,0-1.25.95,1.08,1.08,0,0,0-.2.8,9.37,9.37,0,0,0,.3,1.4A8,8,0,0,0,2,312.33,7.55,7.55,0,0,0,4.46,314a24.86,24.86,0,0,0,6.35,1.45c1.33.14,3.52.25,6.55.35l22,1.31q13.2.75,21.95.34c2.6-.1,5-.26,7.15-.5a3.11,3.11,0,0,0,1-.2,33.74,33.74,0,0,0,.8,4,28,28,0,0,0,1.45,4.86,21.64,21.64,0,0,0,4.25,6.09,62,62,0,0,0,5.65,5.05,16.39,16.39,0,0,0,3.2,2.15,24.74,24.74,0,0,0,3.5,1c.83.26,2,.71,3.6,1.34a19.22,19.22,0,0,0,7,.2,33.63,33.63,0,0,0,7.6-1.6,36,36,0,0,0,8.85-5.19,27.85,27.85,0,0,0,3.65-3.21,17.09,17.09,0,0,0,3.9-7.25,26,26,0,0,0,.9-8.29c0-.41,0-.81,0-1.21l.35-.1A41.87,41.87,0,0,1,136,312q4-.34,12.25-.8,4.6-.39,13.95-2,7.59-1.25,11.6-2.14A77.41,77.41,0,0,0,185,303.67a24.53,24.53,0,0,0,5-2.5q1.4-.94,1.05-1.95a2,2,0,0,0-.95-.85,39.5,39.5,0,0,0-9.85-3.65l-1.9-1.8q-1.5-1.29-1.8-1.5-6.41-5.4-10.9-8.5a103.27,103.27,0,0,0-11.9-6.95,170.83,170.83,0,0,0-19.5-7.8q-6.4-2.3-9.75-3.15a83.2,83.2,0,0,0-11.05-2c-2.83-.36-6.49-.66-10.95-.89a2.33,2.33,0,0,1-.15-.36,7.36,7.36,0,0,1,0-1.25,1.86,1.86,0,0,0-.35-1.1,3.37,3.37,0,0,1-.9-.7,1.81,1.81,0,0,1-.45-1.09,9.37,9.37,0,0,0-.15-1.31,5.28,5.28,0,0,0-.85-2.1,4.4,4.4,0,0,0-.75-.84,3.15,3.15,0,0,0-1.6-.5,15.86,15.86,0,0,0-1.85-.21v-.5c-.17-4.06-.28-6.48-.35-7.25-.2-2.33-.32-4.1-.35-5.29s.07-2.89.2-5.16q1.25-17.19,1.3-19a150,150,0,0,0-.1-19c-.2-2.06-.33-3.61-.4-4.65-.14-1.8-.18-3.36-.15-4.7,0-.46.18-2.8.55-7,.17-2.76.11-6.88-.15-12.35l-1.4-28.45,1-55.6q0-7.59-.35-19.6-.55-16.2-.6-19.65-.7-9.15-.8-10.5-.81-9-1-17a42.89,42.89,0,0,1,0-4.3L93,9.12q0-1.35-.15-4L92.61,2A3,3,0,0,0,92.36.62,1,1,0,0,0,91.21,0c-.6.17-.83.84-.7,2a34.16,34.16,0,0,1,.4,6.6l-.2,6.45q.39,12.75,1.1,20.1.15,1.35.45,6c.23,3.54.35,6,.35,7.25l.9,53.15q-.11,12-.7,18l-.4,3.7c-.07,1.1-.07,2.79,0,5.05l.2,11.15v1.6L94,168.27a87.74,87.74,0,0,1,.15,10.4c0,.67-.14,2.09-.3,4.25-.13,1.74-.22,3.14-.25,4.2,0,1.37,0,3,.15,4.9.07,1.07.2,2.69.4,4.85a149.57,149.57,0,0,1,.15,17q-.2,5-1.1,17a87.13,87.13,0,0,0-.4,9.25q0,.4.4,5.9a35.79,35.79,0,0,1,.1,5.85,3.85,3.85,0,0,0-.05.65,5,5,0,0,0-.95,0,4.49,4.49,0,0,0-.15-1.65,34.22,34.22,0,0,1-.55-7,333.92,333.92,0,0,1,1.55-35.7,47.54,47.54,0,0,0,.3-4.9c0-.73-.25-2.43-.65-5.1a70.11,70.11,0,0,1-.3-12.35q.5-8.19.55-12.35,0-5.75-.6-13.5-.94-8.94-1.4-13.45-.15-1.29-.15-7,0-6,.15-8c.27-2.9.4-4.66.4-5.3v-5.4c0-2,.27-5.2.7-9.7q.54-6.2.5-9.7-.15-6.45-.55-14.65a20.62,20.62,0,0,1,.15-4,6.58,6.58,0,0,0,.05-1.5,9,9,0,0,1,0-1.5,19.15,19.15,0,0,0,.1-5.3c-.27-3-.4-4.73-.4-5.3.13-2.1.22-3.68.25-4.75,0-.76,0-2.51-.2-5.25l-1.5-19.85a44.88,44.88,0,0,1-.35-5.75q.2-3.39,0-8.15c-.17-3.63-.28-6.36-.35-8.2q-.15-3.95-.25-12l0-2.35a4.78,4.78,0,0,0-.25-1.9,1.08,1.08,0,0,0-.75-.55m81,295.55a21,21,0,0,1,3.35-.1l6.2.9a23.61,23.61,0,0,1,8.85,3.16,39.19,39.19,0,0,1-4.4,2.14,2.92,2.92,0,0,0,.9-1.25,1.36,1.36,0,0,0-.4-1.64,2.62,2.62,0,0,0-1.35-.31l-3.75,0q-5.06-.45-7.6-.55c-1.07-.06-2.74-.09-5-.09l-3.1,0a31.58,31.58,0,0,1-4.2.05l-17.35-.65q-5.2-.3-7.8-.3-1.9,0-8.65.2-8.51.4-12.7.66l-33.25,2.09-7.3-.05c-2.47-.06-3.93-.1-4.4-.1a56.48,56.48,0,0,0-5.8.56l-19.4,2.79q-4.3.6-6.4.8c-3.77.14-6.58.27-8.45.41a63.18,63.18,0,0,0-20.2,4.84c-1.1.5-1.74,1.07-1.9,1.7a1.92,1.92,0,0,0,.2,1.15,6.52,6.52,0,0,1-2.5-1.85c-.9-.9-1.29-1.34-1.15-1.34q4.55-2.65,13.5-4.5,12.5-2.55,36.6-5.11,7.4-.75,8.85-.85,4.25-.35,12.85-.65l20.75-.75q4.45-.2,6.4-.45h.25c0-.06,3.76-.25,11.4-.55q3.86-.2,11.55-.75,12.4-.64,34.35.7a58.73,58.73,0,0,0,7.7.1c.76-.06,1.88-.2,3.35-.4m7.05-1.5a21.1,21.1,0,0,0-4.55-.54c-1,0-3,.05-6.1.25-2.77.09-5.25.13-7.45.09q-3,0-8-.4-6.11-.45-8.05-.55-8.4-.39-20.75.3-13.61,1-20.55,1.2h-.2l-1.9.25q-2.1.21-6.4.25-22.91.4-41.85,2.25-16,1.5-31.65,4.36-2.76.5-5.2,1,1.69-1.8,5.35-5.85a52.61,52.61,0,0,1,6.55-6.3c1.36-1.06,3.51-2.53,6.45-4.39.56-.41,1.56-1.17,3-2.31,1.23-1,2.23-1.76,3-2.3a59.21,59.21,0,0,1,7.25-3.85q6.41-3,8.45-3.75Q57,273,63.66,270.77l15.55-5a49.84,49.84,0,0,1,5.7-1.6l1.2-.2a40.2,40.2,0,0,1,7-.39q7.8,0,8.55.14l12.8,1.4a73.24,73.24,0,0,1,12,2.6c2.76.84,6.67,2.19,11.7,4q4.74,1.75,7.7,3,3.3,1.36,6.45,2.86a117.46,117.46,0,0,1,24.4,16.79m-5.2,5.85,5.2.36c2.13.16,3.86.23,5.2.19l-2.9,1.6a22.76,22.76,0,0,1-2.25,1.1q-4.69,1.75-4.7,1.8c-1.3.27-2.72.55-4.25.85q-7.91,1.5-11.7,2-2.25.3-15.85,1.46a100.8,100.8,0,0,0-15.65,2.29.57.57,0,0,1-.45-.1,1.36,1.36,0,0,0-.8.06A33.37,33.37,0,0,0,119,299.72c.9-.06,1.77-.11,2.6-.14q10.5-.46,18-.25,3.71.09,7.45.29,10.39.51,12.45.65l5.35,0q5-.09,6.6,0m-85.35-38.3a1.26,1.26,0,0,1,.3-.55l.45-.5a3.85,3.85,0,0,0,.65-1.45c.16-.73.3-1.28.4-1.65a4.09,4.09,0,0,1,2.8-2.85,7.45,7.45,0,0,1,2.5-.34,23.33,23.33,0,0,1,3.75.29l.65.21a1.53,1.53,0,0,1,.45.59,11.75,11.75,0,0,1,.5,2.41,3.18,3.18,0,0,0,1,2.19,2.05,2.05,0,0,1,.6.56,1.44,1.44,0,0,1,.1.64h-6.4a67.36,67.36,0,0,0-7.75.45M56.51,303.58a19.81,19.81,0,0,0,2.45-.36c.5-.09,1.32-.3,2.45-.6a18.14,18.14,0,0,1,2.5-.35l2.5-.25a17,17,0,0,1,2.2,0c.5,0,1.23.1,2.2.2a5.8,5.8,0,0,0,.85.05,4.18,4.18,0,0,0-.45.65,20.51,20.51,0,0,0-1.45,6.05,36.73,36.73,0,0,0-.35,6.16c-.63,0-1.1,0-1.4,0l-8.15.21q-7.65.24-17.25-.16-5.85-.24-17.25-1.05c-1.37-.06-3.55-.2-6.55-.4l-7.6-.55a14.77,14.77,0,0,1-1.6-.25,3.7,3.7,0,0,1-1.1-.3c-.5-.46-.73-.86-.7-1.2,3-1.06,5.68-1.93,8.05-2.59a59.61,59.61,0,0,1,8.8-2c1.3-.16,2.92-.28,4.85-.35l4.85-.15q3.86-.24,11.1-1.35,7.5-1.2,11-1.44m17.3-.66c.07-.13.5-.26,1.3-.4a13.53,13.53,0,0,1,2.15-.19l2.8-.11c1.3-.09,3.16-.2,5.6-.3s4.28-.2,5.55-.3l1.2-.1a4.34,4.34,0,0,0-.15.81v1.59a7.37,7.37,0,0,1-.05,1.55l-.2,1.8a11.41,11.41,0,0,0,.2,1.81,42.44,42.44,0,0,1,.25,5.29,1.79,1.79,0,0,0,.4,1.6.84.84,0,0,0,.7.2,1,1,0,0,0,.65-.34,5,5,0,0,0,.25-1,36.83,36.83,0,0,0-.25-5.95,7.74,7.74,0,0,1-.15-1.8s0-.45.15-1.25a9.37,9.37,0,0,0,.05-1.79c0-.81,0-1.41,0-1.81a2.6,2.6,0,0,0,.1-.9c.77-.06,1.53-.11,2.3-.15a.66.66,0,0,0,0,.25l-.6,12.2a5.57,5.57,0,0,0,0,1,1.11,1.11,0,0,0,.5.8,1.09,1.09,0,0,0,.75.15,1.18,1.18,0,0,0,.6-.4,1.35,1.35,0,0,0,.2-.75,7.76,7.76,0,0,1,0-.85,15,15,0,0,1,.2-2.5,24.29,24.29,0,0,1,0-2.45c.16-1.6.25-2.79.25-3.59v-2.25l.15-1.36a1.32,1.32,0,0,0,0-.39c.6-.07,1.2-.12,1.8-.16a2.89,2.89,0,0,0-.15,1v10.3a10,10,0,0,0,.1,1.7l0,.16a1.93,1.93,0,0,0,0,.59l0,.41a1,1,0,0,0,1,.69.82.82,0,0,0,.6-.25,1.07,1.07,0,0,0,.3-.55l0-13.2a2.86,2.86,0,0,0,.1-.9v-.1c5.33-.39,9.93-.7,13.8-.9a3.85,3.85,0,0,0,.75,1.05,8.26,8.26,0,0,1,1,1.41,28.47,28.47,0,0,1,3.4,9.59,28.16,28.16,0,0,1-.15,10.2,16,16,0,0,1-2.85,6.85,18.35,18.35,0,0,1-3.35,3.2,32.44,32.44,0,0,1-8.35,5.3,30.94,30.94,0,0,1-7.5,1.7,16.49,16.49,0,0,1-6.8-.15c-1.7-.66-3-1.11-3.85-1.35l-1.65-.3a7.22,7.22,0,0,1-1.65-.5,7,7,0,0,1-2-1.45c-.8-.83-1.42-1.43-1.85-1.8-.17-.13-.89-.71-2.15-1.75a19.92,19.92,0,0,1-6.3-8.75q-2.4-6.39-.9-15.65a9.74,9.74,0,0,1,1.2-3.7Z" />
</svg>