<svg xmlns="http://www.w3.org/2000/svg" viewBox="0 0 113.25 113.94">
    <path
        d="M58,0A7.27,7.27,0,0,0,56,.09a87.63,87.63,0,0,0-9.9,1.4c-2.8.93-4.9,1.62-6.3,2.05s-2.64.72-3.4,1a24.27,24.27,0,0,0-3.35,1.15,41.49,41.49,0,0,0-5,3,97.37,97.37,0,0,0-11.75,9.05,51.89,51.89,0,0,0-14.5,24.7A71.45,71.45,0,0,0,.13,63.24a28.3,28.3,0,0,0,.5,4.9,29.41,29.41,0,0,0,1.7,5.55c1.33,3.43,2,5.27,2.1,5.5A43.14,43.14,0,0,0,6.28,84a27.23,27.23,0,0,0,2.35,3.4l2.95,3.8a50.21,50.21,0,0,0,3.5,4.25,46.19,46.19,0,0,0,4.65,4.4c1.46,1.27,3,2.48,4.55,3.65a50.24,50.24,0,0,0,5.55,3.3c1.13.57,2.33,1.13,3.6,1.7.7.3,2.06.87,4.1,1.7s3.1,1.18,3.3,1.25q5.25,1.2,7.6,1.6a46.4,46.4,0,0,0,7.75.85l3.55-.1a62.92,62.92,0,0,0,6.6-.6,23.2,23.2,0,0,0,6.3-2l1.7-.7q4.74-2.15,6.6-3.15a76.68,76.68,0,0,0,6.65-4,35.53,35.53,0,0,0,4.1-3.1,52.4,52.4,0,0,0,3.95-4.35l3.45-3.15q9.24-8.51,13-26.95c.46-2.43.76-4.32.9-5.65a24,24,0,0,0,.15-5,33.34,33.34,0,0,0-.65-3.45,25.28,25.28,0,0,1-.6-3.5,23.73,23.73,0,0,0-.2-5.25,13,13,0,0,0-1-2.85l-1.35-2.7c-.27-.63-.64-1.68-1.1-3.15a26.78,26.78,0,0,0-1.15-3.15,28.7,28.7,0,0,0-3.6-5.4q-4.5-5.59-6.65-8.1a46.06,46.06,0,0,0-4.25-4.35q-1.11-.94-4.2-3.15a87.46,87.46,0,0,0-11.2-6.6A35,35,0,0,0,71.33,2Q67.77,1.29,64.48.79A53.44,53.44,0,0,0,58,0m29.25,12.1q3,1.9,3.7,2.5a29.09,29.09,0,0,1,3,2.85q2.4,2.66,6.8,8.25a60.16,60.16,0,0,1,3.7,5.1c.6,1.07,1.51,3,2.75,5.9a34.91,34.91,0,0,1,2.6,8.8q.09.75.15,2.55a19.19,19.19,0,0,0,.2,2.5,24.76,24.76,0,0,0,.55,2.45,20.43,20.43,0,0,1,.5,2.45,17.38,17.38,0,0,1-.25,4.85,82.28,82.28,0,0,1-3.7,15.75A40,40,0,0,1,99,89.89l-4.4,4.25q-2.85,3-4.35,4.4a43.81,43.81,0,0,1-8,5.75q-3.51,2-9,4.4c-.17.07-.32.13-.45.2a9,9,0,0,0-1.75.75,22.49,22.49,0,0,1-6.85,1.8,51.58,51.58,0,0,1-22.6-2,89.88,89.88,0,0,1-11.8-4.9c-1-.57-1.89-1.12-2.75-1.65q-1.6-1.05-4.6-3.35a42.41,42.41,0,0,1-4.05-3.35A51.14,51.14,0,0,1,14.78,92q-3.36-4.09-4.95-6.45a29.38,29.38,0,0,1-3.7-7.2q-1-3.2-1.5-4.8a48.69,48.69,0,0,1-1.7-4.6,28,28,0,0,1-.8-5.2Q.93,45.33,7.93,32a51.86,51.86,0,0,1,15-17.3l4.8-3.45a40.23,40.23,0,0,1,6-3.65A27.61,27.61,0,0,1,37,6.54c.73-.23,1.83-.55,3.3-1s3.31-1.07,5.95-2a21.64,21.64,0,0,1,6.05-1.15l5.1-.4c.63,0,1.55.07,2.75.2a122.62,122.62,0,0,1,12.8,2.25l1,.15S75,5,77,5.84a50.73,50.73,0,0,1,5.5,2.9q1.59,1,4.7,3.4M33,99.14a1,1,0,0,0-.3-.7.79.79,0,0,0-.7-.3l-.1,0a.89.89,0,0,0-.9.6.79.79,0,0,0,.1,1,.81.81,0,0,0,.75.4,1.13,1.13,0,0,0,.8-.35,1.05,1.05,0,0,0,.35-.75m-18.4-18.5a.87.87,0,0,0-1.05.1.86.86,0,0,0-.5,1,.94.94,0,0,0,.45.75,1.35,1.35,0,0,0,.9.1A1.15,1.15,0,0,0,15,82a1,1,0,0,0,.1-.75.74.74,0,0,0-.45-.65h-.1M5.48,58.19A1.51,1.51,0,0,0,7,59a1.68,1.68,0,0,0,1.3-.5,1.65,1.65,0,0,0,.4-1.4,1.69,1.69,0,0,0-.45-1.25,2,2,0,0,0-.85-.3,1.71,1.71,0,0,0-2,1,3.37,3.37,0,0,0-.1,1,1.44,1.44,0,0,0,.15.65M13.93,34a1,1,0,0,0,.7-.3.78.78,0,0,0,.3-.7l0-.1a.91.91,0,0,0-.6-.9.8.8,0,0,0-1,.1.83.83,0,0,0-.4.75,1.07,1.07,0,0,0,.35.8,1.05,1.05,0,0,0,.75.35m17.2-17.7a.85.85,0,0,0,.75.05.75.75,0,0,0,.65-.45v-.1a.89.89,0,0,0-.1-1,1,1,0,0,0-1.7,0,1.15,1.15,0,0,0-.1.85,1.11,1.11,0,0,0,.5.7m26,88.35a2,2,0,0,0-.85-.3,1.71,1.71,0,0,0-2,1,3.37,3.37,0,0,0-.1,1,1.44,1.44,0,0,0,.15.65,1.51,1.51,0,0,0,1.55.8,1.68,1.68,0,0,0,1.3-.5,1.65,1.65,0,0,0,.4-1.4,1.69,1.69,0,0,0-.45-1.25m41.1-22.35a1,1,0,0,0,.7-.3.78.78,0,0,0,.3-.7l-.05-.1a.91.91,0,0,0-.6-.9.8.8,0,0,0-1,.1.83.83,0,0,0-.4.75,1.07,1.07,0,0,0,.35.8,1.05,1.05,0,0,0,.75.35m4.9-24.75a1.44,1.44,0,0,0,.15.65,1.51,1.51,0,0,0,1.55.8,1.68,1.68,0,0,0,1.3-.5,1.65,1.65,0,0,0,.4-1.4,1.69,1.69,0,0,0-.45-1.25,2,2,0,0,0-.85-.3,1.71,1.71,0,0,0-2,1,3.37,3.37,0,0,0-.1,1M81.33,99.74a.89.89,0,0,0-.1-1,.84.84,0,0,0-1-.45.79.79,0,0,0-.75.45,1.15,1.15,0,0,0-.1.85,1.11,1.11,0,0,0,.5.7.85.85,0,0,0,.75.05q.34,0,.6-.45l0-.1M58.88,60.79a5.13,5.13,0,0,0,1.4-1.3,7.84,7.84,0,0,0,1.25-1.8,2.85,2.85,0,0,0,.25-2.1,4.94,4.94,0,0,0-1.7-2.25,6.07,6.07,0,0,0-1.2-.9,6.46,6.46,0,0,0-2-.55l-1.8-.15a3.17,3.17,0,0,0-1.7.4,4.23,4.23,0,0,0-1.35,2,6.52,6.52,0,0,0-.65,3.55,6,6,0,0,0,1.9,3.25,2.65,2.65,0,0,0,.85.6,3.12,3.12,0,0,0,.95.1,6.21,6.21,0,0,0,3.8-.85M57.08,7.84a2,2,0,0,0-.85-.3,1.71,1.71,0,0,0-2,1,3.37,3.37,0,0,0-.1,1,1.44,1.44,0,0,0,.15.65,1.51,1.51,0,0,0,1.55.8,1.68,1.68,0,0,0,1.3-.5,1.65,1.65,0,0,0,.4-1.4,1.69,1.69,0,0,0-.45-1.25m24.2,7.1a1,1,0,0,0-.3-.7.79.79,0,0,0-.7-.3l-.1.05a.89.89,0,0,0-.9.6.79.79,0,0,0,.1,1.05.81.81,0,0,0,.75.4,1.13,1.13,0,0,0,.8-.35,1.05,1.05,0,0,0,.35-.75M99,33.24a1,1,0,0,0,.1-.75q0-.35-.45-.6h-.1a.93.93,0,0,0-1,.05.91.91,0,0,0-.5.95.94.94,0,0,0,.45.75,1.35,1.35,0,0,0,.9.1A1.15,1.15,0,0,0,99,33.24Z" />
</svg>