<?xml version="1.0" encoding="utf-8"?>
<!-- Generator: Adobe Illustrator 26.0.1, SVG Export Plug-In . SVG Version: 6.00 Build 0)  -->
<svg version="1.1" id="Layer_1" xmlns="http://www.w3.org/2000/svg" xmlns:xlink="http://www.w3.org/1999/xlink" x="0px" y="0px"
	 viewBox="0 0 48 24" style="enable-background:new 0 0 48 24;" xml:space="preserve">
<path d="M0.4,1.9C0.7,3,0.6,5.3,0.6,6.5c0.1,2.1,0.2,3.7,0,5.9c-0.2,2.3-0.4,3-0.4,4.3c0,1.3,0.1,1.1,0.1,3.2
	c0,2-0.4,2.9,0,3.3c0.6,0.8,2,0.4,3.6,0.3c5.7-0.1,9.9,0,9.9,0c2.3-0.3,4.1-0.4,5.8-0.5c2.8-0.1,3.8,0.2,6.9,0.5
	c10.4,0.9,14.6,0,17.4,0.1c0.6,0,2.6,0.7,3.4,0.1c0.4-0.3,0.5-0.9,0.3-2.6c-0.3-2.6,0.2-3.4,0-4.9c-0.4-2.4,0.1-2.6,0.2-6.1
	c0.1-3.1-0.7-3.3-0.2-5.6c0.3-1.4,0.6-2.7,0.1-3.6c-0.4-0.6-3.5-0.5-4.1-0.6c-1.2-0.1-3.6-0.1-5.7,0.4C36.4,0.9,34,1,29.9,0.4
	c-1.4-0.2-2.7,0.3-4.8,0.1c-2-0.2-3.1-0.3-4.6-0.1c-2.4,0.4-2.2,0.3-3.9,0.3C15.4,0.6,10.7,0,9,0.4C7.6,0.7,6.7,0.9,5.5,0.9
	C2.3,0.8,1.5,0,0.7,0.4C0.5,0.5,0.2,1.1,0.4,1.9z"/>
</svg>
