<svg version="1.1" id="Layer_1" xmlns="http://www.w3.org/2000/svg" xmlns:xlink="http://www.w3.org/1999/xlink" x="0px" y="0px"
	 viewBox="0 0 24 24" style="enable-background:new 0 0 24 24;" xml:space="preserve">
<path d="M21.8,19c0.9,0.9,0.8,2.5-0.1,3.5c-0.9,0.8-2.3,0.8-3.3-0.1c-0.8-0.8-1.5-1.5-2.1-2.3c-0.5-0.8-0.7-1-1.3-1.7
	c-1.1-1.1-2-2.4-2.9-3.7c-2.3,2.4-4.5,5-6.8,7.5c-0.8,0.9-2.4,0.9-3.3,0c-0.9-1-0.8-2.6,0-3.6c2.3-2.5,4.6-5.1,6.9-7.5
	C6.9,9,4.7,7.1,2.7,5C1.9,4.1,1.9,2.6,2.8,1.7c0.8-0.8,2.3-0.8,3.3,0.1c2,2,4.2,4,6.2,6.1c0.3-0.3,0.6-0.5,0.9-0.8
	c0.7-0.6,1.3-1,2-1.8s1.3-1.3,2.2-1.9c0.6-0.4,1.1-1,1.7-1.7c0.8-0.9,2.4-0.8,3.3-0.1c0.9,1,0.8,2.5,0,3.6c-0.7,0.8-1.4,1.6-2.3,2.3
	C19.3,8,19,8.2,18.4,9c-0.8,1-1.8,1.7-2.8,2.5c0.5,0.6,0.9,1.1,1.3,1.7c0.5,0.8,0.9,1.4,1.5,2c0.8,0.7,1.3,1.4,1.8,2.3
	C20.5,17.9,21.2,18.4,21.8,19z"/>
</svg>
