<?xml version="1.0" encoding="utf-8"?>
<!-- Generator: Adobe Illustrator 26.0.1, SVG Export Plug-In . SVG Version: 6.00 Build 0)  -->
<svg version="1.1" id="Layer_1" xmlns="http://www.w3.org/2000/svg" xmlns:xlink="http://www.w3.org/1999/xlink" x="0px" y="0px"
	 viewBox="0 0 32 32" style="enable-background:new 0 0 32 32;" xml:space="preserve">
<style type="text/css">
	.st0{display:none;fill:#010101;}
	.st1{display:none;opacity:0.42;}
	.st2{fill:#010101;}
</style>
<path class="st0" d="M25.3,14.7c0,0,0,0.1,0,0.1c0,0,0,0,0,0c0,0,0,0,0,0c0,0.1,0,0.1,0,0.2c0,0.1,0,0.1,0,0.1
	c-0.1,0.4-0.5,0.7-0.9,0.9c0,0-0.1,0-0.1,0.1c-1.3,0.4-2.6,0.8-3.9,1.2c-0.2,0-0.3,0.1-0.5,0.2c0.1,0.1,0.1,0.2,0.2,0.3
	c0.1,0.1,0.1,0.2,0.2,0.2c0,0,0,0,0,0c0,0,0,0.1,0,0.1c0,0,0,0,0,0v0c0,0,0,0,0,0c0,0,0,0,0,0c0.2,0.2,0.4,0.5,0.6,0.7
	c0.2,0.3,0.4,0.5,0.7,0.8c0.9,1,1.9,2,2.9,3c0.6,0.6,0.6,1.5,0,2.1c-0.5,0.6-1.6,0.6-2.1,0c-1.6-1.7-3.3-3.4-4.7-5.3
	c0,0,0,0.1-0.1,0.1v0h0v0c0,0.1-0.1,0.2-0.1,0.2c-0.5,1.4-0.8,2.8-1,4.2c-0.1,0.6-0.8,1.1-1.4,1.1c-0.7,0-1.2-0.5-1.4-1.1
	c-2-5-4-10-5.5-15.1C7.8,7.8,8.8,6.8,9.9,7.1c5.1,1.4,9.5,4.2,14.3,6.2c0.1,0,0.2,0.1,0.3,0.1c0,0,0,0,0,0c0,0,0,0,0,0
	c0.3,0.1,0.6,0.5,0.7,0.8C25.3,14.4,25.3,14.6,25.3,14.7z"/>
<g id="uZ4JqB.tif" class="st1">
	
		<image style="display:inline;overflow:visible;" width="264" height="313" id="Layer_0" xlink:href="63177551EE10C85E.png"  transform="matrix(8.726619e-02 -1.728608e-02 1.728608e-02 8.726619e-02 1.7756 5.6061)">
	</image>
</g>
<path class="st0" d="M23.3,24.3c-2,1.5-5.9,1.8-8.3,2c-0.5,0-1-0.1-1.4-0.4c-2-1.4-2.4-3-2.9-4.1c0,0-0.4-0.9-0.8-1.6
	c-0.3-0.6-0.7-1.1-1.2-1.6c-1.6-1.7,0.1-4.6,2.5-2.9c-0.6-5.4-2.3-3.6-3-5.4c-0.7-1.5,0.9-2.7,3.7-1.4c0.5,0.3,1.8,0.6,2.4,3.4
	c-0.3-1.4,2.6-1.5,3.3-0.1c1.1-1.2,3.1-0.3,3.2,1.2c4.2-2.1,4,5.3,3.7,8.6C24.5,22.9,24,23.7,23.3,24.3z"/>
<path class="st0" d="M6.1,0c1.9-0.1,4.8,2,8.7,6.3c3.7,4,6.3,4.6,8.7,6.7c0.5,0.3,4.6,2.9,4.3,4c-0.4,2-7,4.6-10.3,7.2
	c-1.6,1.2-4.7,2.5-7.5,5.2C8,31.3,7.1,32,6.5,32c-2-0.1-2.3-5.4-2.1-9.1c0.4-6.6,0.4-8.3,0.3-9.6C4.4,9.8,3.8,6.3,4.5,3
	C4.6,2.1,4.9,0,6.1,0z"/>
<g>
	<g>
		<g>
			<path class="st2" d="M5.7,4.9c0.1,3.3,0.1,6.6,0.2,9.9c0.1,4.1,0.2,8.2,0.1,12.4c0,1.7,1.5,3.1,3.1,3.1c1.7,0,3.1-1.4,3.1-3.1
				c0.1-4.1,0-8.2-0.1-12.4c-0.1-3.3-0.1-6.6-0.2-9.9c-0.1-1.7-1.4-3.1-3.1-3.1C7.2,1.8,5.7,3.2,5.7,4.9L5.7,4.9z"/>
		</g>
	</g>
	<g>
		<g>
			<path class="st2" d="M25.4,27.1c-0.1-3.8-0.1-7.6-0.3-11.4c-0.1-3.6-0.2-7.2-0.1-10.9c0.1-1.7-1.5-3.1-3.1-3.1
				c-1.7,0-3.1,1.4-3.1,3.1c-0.1,3.6-0.1,7.2,0.1,10.9c0.1,3.8,0.1,7.6,0.3,11.4c0.1,1.7,1.4,3.1,3.1,3.1
				C23.9,30.2,25.4,28.8,25.4,27.1L25.4,27.1z"/>
		</g>
	</g>
</g>
</svg>
