<svg version="1.1" id="Layer_1" xmlns="http://www.w3.org/2000/svg" xmlns:xlink="http://www.w3.org/1999/xlink" x="0px"
	y="0px" viewBox="0 0 24 24" style="enable-background:new 0 0 24 24;" xml:space="preserve">
	<path d="M8.2,3.5C7.9,1.7,9.6,0,11.3,0c0.3,0,0.5,0.1,0.8,0.1l0.7,0.3l0.6,0.5c1.1,1,1.4,2.6,0.7,3.9l0,0l0,0
		C12.7,7.3,8.3,6.5,8.2,3.5z" />
	<path
		d="M16.2,21.8c-1.3,1.1-3.7,2.9-6.4,1.9c-2-0.7-2.6-2.7-2.7-4.3C7,18,7.2,16.5,7.3,15.1c0.1-1.7,0.2-3.8,0.8-5
		C8.7,8.8,9.8,8.4,11,8.6c1.4,0.3,2,1.6,1.8,2.5c-0.1,0.3-0.1,0.7-0.2,1v0.1c0,0.2-0.1,0.3-0.1,0.5c-0.1,0.6-0.2,1.2-0.2,1.8
		C12.1,15.7,12,16.8,12,18c0,0.5-0.1,0.6,0,1.1c0.3-0.2,0.6-0.4,1-0.6c1.2-0.6,2.5-0.7,3.3,0.2C17,19.5,17,21,16.2,21.8z" />
</svg>