<?xml version="1.0" encoding="utf-8"?>
<!-- Generator: Adobe Illustrator 26.0.1, SVG Export Plug-In . SVG Version: 6.00 Build 0)  -->
<svg version="1.1" id="Layer_1" xmlns="http://www.w3.org/2000/svg" xmlns:xlink="http://www.w3.org/1999/xlink" x="0px" y="0px"
	 viewBox="0 0 24 24" style="enable-background:new 0 0 24 24;" xml:space="preserve">
<path d="M23.2,10.8c0-1.4,0-2.7-0.2-4.1c-0.2-1.6-0.4-3.3-1.5-4.6c-1.3-1.4-3-1.4-4.8-1.2C16.5,1,16.2,1,16,1.1
	c-2,0.1-4.3-0.5-6.4-0.3c-0.1,0-0.7,0.1-0.9,0.1c0,0,0,0,0,0H8.6c0,0,0,0,0.1,0c-0.1,0-0.6,0-0.5,0C7.3,0.8,6.6,0.6,5.8,0.8
	C4.5,1.2,3.4,2.2,2.6,3.1C1.5,4.3,1,5.6,1,7.1c-0.1,1.4,0,2.9-0.1,4.4c0,1.2,0,2.5,0,3.8c0,1.4,0,2.8,0.3,4.1
	c0.4,1.4,1.2,2.5,2.5,3.2c1.4,0.7,2.9,0.6,4.4,0.7c2.5,0.1,5.1,0.2,7.7,0c1.5-0.1,2.9-0.4,4.2-1c1.4-0.6,2.1-1.9,2.5-3.3
	C23.4,16.4,23.2,13.5,23.2,10.8z M15.6,12.2c-0.1,0.4-0.3,0.8-0.5,1.1c-0.1,0.2-0.2,0.3-0.3,0.4c-0.2,0.3-0.5,0.6-0.7,0.9
	c-0.1,0.1-0.3,0.2-0.4,0.3c-0.2,0.1-0.3,0.2-0.5,0.3c-0.5,0.2-0.9,0.4-1.4,0.4c-0.3,0-0.6,0-0.9-0.1c-0.3-0.1-0.7-0.3-1-0.5
	c-0.5-0.4-0.8-0.6-1.2-1.2c-0.2-0.3-0.3-0.6-0.4-1c0-0.2-0.1-0.5-0.1-0.7c-0.1-0.3,0-0.5,0-0.8c0-0.3,0.1-0.6,0.3-0.9
	c0.2-0.6,0.6-1.1,1-1.5c0.3-0.3,0.6-0.5,0.9-0.7C10.7,8.2,11,8.1,11.3,8c0.3-0.1,0.6-0.1,0.9-0.1c0.4,0,0.8,0,1.2,0.2
	c0.6,0.2,1,0.4,1.4,0.9C15.6,9.8,15.9,11.1,15.6,12.2z M19.7,5.6C19.7,5.6,19.7,5.6,19.7,5.6c-0.1,0.1-0.1,0.3-0.2,0.4
	c0,0,0,0.1-0.1,0.1c-0.1,0.2-0.3,0.3-0.4,0.5c-0.1,0.1-0.3,0.1-0.5,0.1c-0.2,0-0.3,0-0.5,0c-0.2-0.1-0.4-0.2-0.5-0.3
	c-0.1-0.1-0.2-0.2-0.2-0.3c0,0,0,0,0,0c0-0.1-0.1-0.2-0.1-0.3c0,0,0,0,0,0c0,0,0-0.1,0-0.2c-0.1-0.2-0.1-0.4,0-0.7
	c0-0.1,0.1-0.2,0.1-0.3c0,0,0.2-0.2,0.2-0.3c0,0,0,0,0,0c0,0,0,0,0.1,0c0,0,0,0,0,0c0,0,0.1-0.1,0.1-0.1c0,0,0,0,0,0c0,0,0,0,0,0
	c0,0,0.1-0.1,0.1-0.1c0.1-0.1,0.2-0.1,0.3-0.1c0.2,0,0.4,0,0.7,0c0.1,0,0.2,0.1,0.3,0.1c0.2,0.1,0.3,0.3,0.5,0.5
	c0,0.1,0.1,0.2,0.1,0.3c0,0.1,0,0.2,0,0.3v0C19.8,5.2,19.8,5.4,19.7,5.6z"/>
</svg>
