<svg version="1.1" id="line" xmlns="http://www.w3.org/2000/svg" xmlns:xlink="http://www.w3.org/1999/xlink" x="0px" y="0px"
	 viewBox="0 0 7.1 1908.9" style="enable-background:new 0 0 7.1 1908.9;" xml:space="preserve">
<path d="M5.4,82.6c0.4-13.8,0.1-24.9-0.7-33.2c-0.3-3.2-0.9-8.1-1.8-14.5c-0.6-5.6-0.8-10.5-0.5-14.5
	C2.7,16,3.9,9.6,6,1.3L2.1,0C3,2,3.2,4.4,2.7,7.3c-0.8,3.4-1.4,5.9-1.7,7.5C-0.1,19.6-0.3,25.3,0.3,32c1,7.7,1.7,13.5,2.1,17.3
	c0.8,7.5,1.1,17.2,0.8,28.9c-0.4,16.9-0.6,26.6-0.6,29c0.1,4.6,0.4,11.3,0.9,20c0.5,9.1,0.8,15.7,0.9,19.9
	c0.3,11.2-0.5,30.6-2.4,58.1c-1.7,24.6-2,44-0.9,58c1.1,10.9,2,19,2.5,24.4c0.9,9.7,1.2,17.9,0.8,24.5c-0.2,2.8-0.6,6.5-1.2,11.1
	c-0.7,5.6-1.1,9.3-1.3,11.1c-0.7,7.3-0.8,15.7-0.3,25.2c0.2,3.6,0.8,12,1.8,25.2c0.1,1.1,0.1,4,0,8.6c-0.1,5.4-0.2,8.9-0.1,10.6
	c0.1,4,0,7.6-0.1,10.7c-0.1,4-0.3,7.5-0.4,10.6c-0.5,10.4-0.9,18.1-1.1,23.3c-0.3,9-0.4,16.7-0.1,23.3c0.1,2,0.5,7.5,1.1,16.5
	c0.5,6.7,0.7,12.2,0.7,16.4c0,3-0.1,6.6-0.4,11c-0.3,4.9-0.6,8.5-0.7,10.9c-0.5,10.1-0.4,23.9,0.3,41.2c0.8,20,1.2,33.8,1.1,41.2
	c-0.1,4.5-0.3,12.4-0.8,23.8c-0.4,10.1-0.6,18.1-0.6,23.9c0,3.7,0.2,10.2,0.6,19.4c0.3,8.3,0.4,14.8,0.4,19.5
	c-0.1,4.7-0.4,11.2-0.9,19.4c-0.6,9.3-0.9,15.7-1.1,19.4c-0.3,9.4,0.1,26.4,1.2,51.1c1,21.5,1,38.5-0.1,50.9c-0.1,0.7,0,2.6,0.3,5.8
	c0.3,3.3,0.4,5.2,0.3,5.9c-0.4,5.1-0.7,8.9-0.8,11.4C2,863.8,2,867.6,2.1,871c0.1,3.1,0.4,7.3,1.1,12.6c0.6,6.1,1,10.3,1.2,12.7
	c0.3,4.6,0.4,9.7,0.4,15.4c-0.1,3.4-0.3,8.5-0.6,15.4c-2.4,59.7-2.9,119.1-1.6,178.2c0.6,23,1,40.3,1.1,51.8
	c0.4,32.8-0.3,65.1-2.1,96.9c-0.7,11.6-1.1,19.2-1.1,22.8c-0.2,8.6-0.1,16.2,0.5,22.8c0.1,1.7,0.6,5.9,1.3,12.6
	c0.6,5.2,1,9.4,1.1,12.6c0.1,3.1-0.3,8.4-1.1,15.9c-0.8,6.7-1,12-0.6,15.8c0.8,8.1,1.4,21.4,1.9,40c0.2,11.1,0.3,18.7,0.4,22.7
	c0.4,10.8,0.4,18.9,0.2,24.2c-0.8,20.2-1.3,36.5-1.4,48.9c-0.2,17.9,0.1,34.2,0.9,48.9c0.3,4.1,0.4,6.9,0.5,8.2
	c0.1,3.1,0.2,5.8,0.1,8.2c-0.1,2.9-0.4,7-1,12.3c-0.6,5.7-1,9.8-1.2,12.4c-0.2,3.6-0.2,8.4,0,14.4c0.1,5.8,0.3,10.2,0.5,13.1
	c0.6,5.8,0.9,10.2,1.2,13.1c0.4,6.6,0.4,14.7-0.1,24.4c-0.7,10.8-1.1,19-1.3,24.4c0,1.5,0,3.8,0.1,6.9l0,4.3c0,0.1-0.1,0.3-0.1,0.4
	c-0.2,2.7-0.3,6.1-0.1,10.1c0.2,4.5,0.4,7.9,0.4,10.1c0,2.3,0,5.1-0.1,8.3c-0.1,3.7-0.2,6.5-0.2,8.3c-0.1,3.8-0.1,9.5-0.1,17.1v67.9
	c0,5.8,0.1,10.1,0.2,12.9c0.2,2.4,0.3,4.2,0.4,5.4c0.1,2.1,0.1,3.9,0.1,5.3c0,1.1-0.2,3.3-0.5,6.6c-0.4,2.8-0.5,5-0.5,6.6
	c0.1,1.5,0.3,3.8,0.8,6.8c0.4,3,0.7,5.3,0.7,6.8c0.1,2.1,0,4.7-0.4,7.9c-0.6,4.9-0.9,7.5-0.9,8C2,1874,1.9,1879,2,1886.3
	c0,6.9-0.2,14-0.6,21.4c0.7,0.4,1.4,0.8,2.1,1.2c0.5-6.7,0.7-13.3,0.7-20c0-1.9,0-4.8-0.1-8.7c0-3.3,0.1-6.2,0.3-8.6
	c0-0.5,0.3-2.9,0.7-7.1c0.3-2.9,0.4-5.2,0.4-7.1s-0.1-4.3-0.4-7.3c-0.4-4.1-0.6-6.5-0.6-7.3c-0.1-2.3-0.1-7,0.1-14.2
	c0-1.3,0.1-5,0.1-11.3c-0.2-46.4-0.2-76.2-0.2-89.4l0.2-44.1c0-0.4-0.1-2-0.4-4.9c0-2.3,0.5-11.8,1.4-28.4
	c0.6-11.5,0.6-20.9,0.1-28.3c0-0.1-0.4-4.3-1.1-12.5c-0.9-10.8-0.9-20.8-0.2-30.1c0.1-1.3,0.4-4.4,0.9-9.3c0.3-3.8,0.6-7,0.6-9.4
	c0.1-2.5,0.1-5.5,0.1-8.9c0-0.4-0.1-3.4-0.3-8.9c-0.9-20.7-1.2-37.6-1-50.9c0-1.9,0.2-7.9,0.4-17.9c0.5-16.9,0.9-28.8,1.4-35.5
	c0.3-4.5,0.4-7.8,0.4-9.9c0.1-3.7-0.1-7-0.6-9.8l-0.1-12.6c-0.1-8.7-0.1-13.8-0.2-15.2c-0.1-2.2-0.4-8-1.1-17.3
	c-0.6-9.4-0.8-16.8-0.6-22.1c0-0.8,0.3-5.4,0.8-13.8c0.3-5.6,0.4-10.2,0.3-13.8c-0.1-3.7-0.4-8.5-0.9-14.6
	c-0.7-7.4-1.1-12.2-1.3-14.6c-0.3-4.6-0.4-9.8-0.3-15.7c0.1-3.1,0.2-8.4,0.5-15.8l1.5-40.2c0.9-22.3,1.3-39.1,1.4-50.3
	c0-8-0.1-17.4-0.4-28.2c0-0.1-0.3-9.5-0.8-28.1C3.6,1054.5,4,992,6.5,929.4c0.3-8,0.5-13.2,0.6-15.8c0.1-5.9,0.1-11.1-0.2-15.7
	c-0.2-4.5-0.8-11.2-1.6-20.1c-0.6-8-0.8-14.7-0.4-20.1c0.2-2.5,0.5-6.2,1-11.2c0-0.9-0.1-3.3-0.2-7.2c-0.2-3.4-0.2-5.8,0-7.2
	c1.5-11.6,1.6-26,0.4-43.2c-1.6-22.8-2.4-37.2-2.4-43.2c0-6.2,0.4-15.5,1-28.1c0.7-12.4,1-21.8,1-28.1c0-4.5-0.1-11.3-0.4-20.5
	c-0.3-9-0.4-15.9-0.4-20.6c0-5.1,0.3-12.7,0.8-22.8c0.5-10.2,0.7-17.8,0.8-22.8c0-6.5-0.4-18.6-1.2-36.2
	c-0.7-15.2-0.9-27.2-0.5-36.1c0-0.5,0.3-4.4,0.8-11.6c0.3-4.7,0.5-8.5,0.5-11.6c0-3.8-0.1-8.5-0.5-14.2c-0.6-8.9-1-13.7-1-14.2
	c-0.4-8.5-0.3-24.4,0.5-47.8c0.2-5.1,0.5-10.8,0.8-17.2c0.2-4.9,0.2-9.4-0.1-13.7v-7.6c0.5-6.8,0.3-14.7-0.6-23.8
	c-1.2-12.6-1.7-20.7-1.6-24.3c0.1-3.6,0.6-8.4,1.4-14.3c1-7.2,1.6-12,1.8-14.4c0.6-7.3,0.3-16.2-0.7-26.9c-0.5-6-1.4-14.9-2.6-26.9
	c-1-14.1-0.7-34.1,1.1-60c1.9-27.6,2.6-47.7,2.1-60.1c-0.1-2.7-0.3-7-0.7-12.9c-0.4-5.6-0.6-9.9-0.7-12.9C4.9,110.7,5,99.6,5.4,82.6
	z"/>
</svg>
