<svg version="1.1" id="Layer_1" xmlns="http://www.w3.org/2000/svg" xmlns:xlink="http://www.w3.org/1999/xlink" x="0px" y="0px"
	 viewBox="0 0 15 1900" style="enable-background:new 0 0 15 1900;" xml:space="preserve">
<path d="M15,0v1900c-2.6,0-11.8,0-12.9,0c0.6-7.4,1.1-16.1,1.1-23c-0.2-7.3,0-12.3,0.3-14.9c0-0.5,0.5-3.1,1.4-8
	c0.6-3.2,0.8-5.8,0.6-7.9c0-1.5-0.5-3.8-1.1-6.8c-0.8-3-1.1-5.3-1.2-6.8c0-1.6,0.2-3.8,0.8-6.6c0.5-3.3,0.8-5.5,0.8-6.6
	c0-1.4,0-3.2-0.2-5.3c-0.2-1.2-0.3-3-0.6-5.4c-0.2-2.8-0.3-7.1-0.3-12.9v-67.9c0-7.6,0-13.3,0.2-17.1c0-1.8,0.2-4.6,0.3-8.3
	c0.2-3.2,0.2-6,0.2-8.3c0-2.2-0.3-5.6-0.6-10.1c-0.3-4-0.2-7.4,0.2-10.1c0-0.1,0.2-0.3,0.2-0.4v-4.3c-0.2-3.1-0.2-5.4-0.2-6.9
	c0.3-5.4,0.9-13.6,2-24.4c0.8-9.7,0.8-17.8,0.2-24.4c-0.5-2.9-0.9-7.3-1.9-13.1c-0.3-2.9-0.6-7.3-0.8-13.1c-0.3-6-0.3-10.8,0-14.4
	c0.3-2.6,0.9-6.7,1.9-12.4c0.9-5.3,1.4-9.4,1.5-12.3c0.2-2.4,0-5.1-0.2-8.2c-0.2-1.3-0.3-4.1-0.8-8.2c-1.2-14.7-1.7-31-1.4-48.9
	c0.2-12.4,0.9-28.7,2.2-48.9c0.3-5.3,0.3-13.4-0.3-24.2c-0.2-4-0.3-11.6-0.6-22.7c-0.8-18.6-1.7-31.9-2.9-40
	c-0.6-3.8-0.3-9.1,0.9-15.8c1.2-7.5,1.9-12.8,1.7-15.9c-0.2-3.2-0.8-7.4-1.7-12.6c-1.1-6.7-1.9-10.9-2-12.6
	c-0.9-6.6-1.1-14.2-0.8-22.8c0-3.6,0.6-11.2,1.7-22.8c2.8-31.8,3.9-64.1,3.2-96.9c-0.3-11.6-0.9-28.9-1.9-51.9
	c-2-59.1-1.2-118.5,2.5-178.2c0.5-6.9,0.8-12,0.9-15.4c0-5.7-0.2-10.8-0.6-15.4c-0.3-2.4-0.9-6.6-1.9-12.7
	c-1.1-5.3-1.5-9.5-1.7-12.6c-0.2-3.4-0.2-7.2,0.2-11.5c0.2-2.5,0.6-6.3,1.2-11.4c0.2-0.7,0-2.6-0.5-5.9c-0.5-3.2-0.6-5.1-0.5-5.8
	c1.7-12.4,1.7-29.4,0.2-50.9c-1.7-24.7-2.3-41.7-1.9-51.1c0.3-3.7,0.8-10.1,1.7-19.4c0.8-8.2,1.2-14.7,1.4-19.4
	c0-4.7-0.2-11.2-0.6-19.5c-0.6-9.2-0.9-15.7-0.9-19.4c0-5.8,0.3-13.8,0.9-23.9c0.8-11.4,1.1-19.3,1.2-23.8
	c0.2-7.4-0.5-21.2-1.7-41.2c-1.1-17.3-1.2-31.1-0.5-41.2c0.2-2.4,0.6-6,1.1-10.9c0.5-4.4,0.6-8,0.6-11c0-4.2-0.3-9.7-1.1-16.4
	c-0.9-9-1.5-14.5-1.7-16.5c-0.5-6.6-0.3-14.3,0.2-23.3c0.3-5.2,0.9-12.9,1.7-23.3c0.2-3.1,0.5-6.6,0.6-10.6
	c0.2-3.1,0.3-6.7,0.2-10.7c-0.2-1.7,0-5.2,0.2-10.6c0.2-4.6,0.2-7.5,0-8.6c-1.5-13.2-2.5-21.6-2.8-25.2c-0.8-9.5-0.6-17.9,0.5-25.2
	c0.3-1.8,0.9-5.5,2-11.1c0.9-4.6,1.5-8.3,1.9-11.1c0.6-6.6,0.2-14.8-1.2-24.5c-0.8-5.4-2.2-13.5-3.9-24.4c-1.7-14-1.2-33.4,1.4-58
	c2.9-27.5,4.2-46.9,3.7-58.1c-0.2-4.2-0.6-10.8-1.4-19.9c-0.8-8.7-1.2-15.4-1.4-20c0-2.4,0.3-12.1,0.9-29c0.5-11.7,0-21.4-1.2-28.9
	C3.1,36.1,2,30.3,0.5,22.6c-0.9-6.7-0.6-12.4,1.1-17.2c0.5-1.6,1.3-2,2.6-5.4C7.6,0,15,0,15,0z"/>
</svg>
