<svg version="1.1" id="Layer_1" xmlns="http://www.w3.org/2000/svg" xmlns:xlink="http://www.w3.org/1999/xlink" x="0px" y="0px"
	 viewBox="0 0 24 24" style="enable-background:new 0 0 24 24;" xml:space="preserve">
<path d="M7.2,4.7C7.2,4.7,7.2,4.7,7.2,4.7c0-0.1,0-0.2,0-0.3c0-0.1,0-0.2,0-0.4c0,0,0,0,0-0.1c0,0,0,0,0-0.1
	C7.1,3.8,7,3.6,7,3.6c0-0.1-0.1-0.2-0.2-0.3C6.7,3.1,6.6,2.9,6.5,2.8c0,0,0-0.1,0-0.1c0,0,0,0,0,0C6.3,2.5,6.2,2.4,6.1,2.2
	c0,0,0,0,0,0C5.9,2,5.7,1.8,5.5,1.7C5,1.5,4.6,1.3,4,1.3c-0.5,0-1,0.1-1.4,0.4c0,0,0,0,0,0C2.4,1.9,2.2,2,2,2.2c0,0,0,0-0.1,0.1
	C1.8,2.5,1.6,2.7,1.4,2.9c0,0,0,0.1-0.1,0.1C1.3,3.3,1.2,3.5,1.1,3.7c0,0,0,0.1,0,0.1C1,4,1,4.4,1,4.6c0,0.6,0.1,0.9,0.4,1.5
	c0,0.1,0.1,0.2,0.2,0.3c0,0,0,0,0,0.1c0.2,0.4,0.5,0.7,0.9,0.9c0.2,0.1,0.4,0.2,0.7,0.3c0.3,0.1,0.5,0.1,0.7,0.1
	c0.2,0,0.4-0.1,0.7-0.1c0,0,0,0,0,0C4.8,7.5,5,7.4,5.3,7.3c0,0,0,0,0,0c0,0,0.1,0,0.1-0.1c0.2,0,0.4-0.1,0.6-0.3
	c0.1-0.1,0.4-0.3,0.5-0.4C6.8,6.2,6.9,6.1,7,5.7c0.2-0.4,0.1-0.2,0.2-0.5c0,0,0-0.1,0-0.1v0C7.2,4.8,7.2,4.8,7.2,4.7z"/>
<path d="M7.3,20.3c0,0.8-0.5,1.8-1.2,2.2C5.4,22.8,4.8,23,4,22.8c-0.2,0-0.4-0.1-0.6-0.1c0,0,0,0,0,0
	c-0.6,0-1.2-0.3-1.6-0.7C1,21.3,1,20.4,0.9,19.5c0-0.9,0-1.9,0-2.8c0-1.9,0-3.9,0.1-5.8c0-0.8,0.3-1.5,1-2c0.6-0.4,1.4-0.7,2.1-0.5
	c0.4-0.1,0.9-0.1,1.3,0c0.6,0.1,1.2,0.6,1.5,1.1c0.3,0.5,0.4,1.3,0.2,1.9c0,0,0,0,0,0.1c0,0,0,0.1,0,0.1c0.1,0.5,0.1,1,0,1.4v1
	c0,0.2,0,0.4-0.1,0.5C7.1,16.5,7.2,18.4,7.3,20.3z"/>
<path d="M23.2,20.5c-0.1,1.4-1.1,2.4-2.5,2.5c-0.2,0-0.5,0-0.7-0.1c-0.1,0-0.2,0-0.3,0c-1.4,0.1-2.5-1.2-2.5-2.5
	c0-2,0.1-4,0.1-6c0,0,0,0,0,0c0-0.1,0-0.1,0-0.2c0,0,0,0,0-0.1c0,0,0,0,0,0l0,0c-0.2-0.1-0.4-0.2-0.6-0.4c0,0-0.1,0-0.2,0
	C16.2,13.9,16.1,14,16,14c0,0.2-0.1,0.4-0.2,0.5c-0.2,0.5-0.4,0.9-0.6,1.4c0,0.2,0,0.3,0,0.5c0,0.5,0,1,0,1.4c0,0.1,0,0.2,0,0.3
	c0.1,0.8,0.1,1.5,0.1,2.3c0,1.4-1.1,2.4-2.5,2.5c-0.3,0-0.7-0.1-1-0.2c0,0,0,0-0.1,0c-0.6,0-1.3-0.3-1.8-0.7
	c-0.5-0.5-0.7-1.1-0.7-1.8c-0.3-2.4-0.4-5,0-7.3c0.2-1.1,0.8-2.1,1.4-3c0.8-1.2,1.8-1.9,3.2-2.4C14.9,7.1,16,7,17.3,7.3
	c1.1,0.2,2.4,0.5,3.3,1.3c0.2,0.2,0.3,0.4,0.4,0.6c0,0,0,0,0,0c0,0,0,0,0.1,0.1c0,0,0,0,0,0.1c0,0,0,0,0-0.1c0,0,0-0.1,0-0.1
	c0.1,0.1,0.2,0.2,0.3,0.3c0.4,0.4,0.7,0.9,1,1.4c0.5,1,0.8,2.1,1,3.2C23.6,16.1,23.3,18.4,23.2,20.5z"/>
</svg>
