<svg version="1.1" id="Layer_1" xmlns="http://www.w3.org/2000/svg" xmlns:xlink="http://www.w3.org/1999/xlink" x="0px" y="0px"
	 viewBox="0 0 48 48" style="enable-background:new 0 0 48 48;" xml:space="preserve">
<path d="M45.4,29c-1.3,5.2-4.4,9.8-8.6,13.1c-0.2,0.4-0.5,0.7-0.9,0.9c-4.7,2.7-10.5,3.5-15.9,3.1
	c-2.9-0.2-5.4-1.7-7.8-3.3c-2.4-1.5-4.4-3.3-6.2-5.5c-1-1.3-2-2.5-2.6-4c-0.5-1.3-0.8-2.6-1-4c-0.3-2.5-0.4-5-0.1-7.4
	c0.3-2.6,1-5,2.2-7.3c0.7-1.2,1.5-2.2,2.4-3.2c0.8-0.9,1.5-2,2.4-2.9c1.9-1.9,4-3.8,6.5-4.8c2.4-1,5.1-1.1,7.7-1.4
	C24.9,2.2,26,3.5,26,4.8c0,1.4-1.2,2.4-2.5,2.5c-2.3,0.2-4.8,0.3-6.8,1.4c-1.9,1-3.7,2.9-5.1,4.6c-1.2,1.6-2.6,3-3.4,4.9
	C7.5,20,7.2,22,7.1,23.9c-0.1,2,0,4,0.4,6c0.5,2.3,2,4,3.5,5.7c1.6,1.7,3.5,2.9,5.5,4.1c0.9,0.5,1.8,1.1,2.8,1.4
	c1.1,0.3,2.2,0.2,3.3,0.2c3.7-0.1,7.2-0.5,10.4-2.2c0.2-0.2,0.4-0.4,0.6-0.6c7.5-5.6,9.5-16.1,5-24.2c-1.6-2.8,2.8-5.3,4.3-2.5
	C45.9,16.9,46.9,23.1,45.4,29z"/>
</svg>
