<svg version="1.1" id="jk" xmlns="http://www.w3.org/2000/svg" xmlns:xlink="http://www.w3.org/1999/xlink" x="0px" y="0px"
	viewBox="0 0 64 64" style="enable-background:new 0 0 64 64;" xml:space="preserve">
	<path d="M13.1,25.7c0-3.2-0.3-5.6-0.8-6.9c-0.5-1.3-1.1-2.7-1.3-3.7c-0.5-1.1-0.8-2.1-0.8-2.9c0-0.8,0.5-1.6,1.9-2.1
		c1.3-0.8,2.9-1.1,4.8-1.1h0.8c1.1,0,2.4,0.3,3.2,1.1c0.8,0.5,1.3,1.6,1.3,2.7v1.1c0,0.3,0,0.8-0.3,1.6c-0.3,1.1-0.5,2.9-0.8,5.6
		c0,0.3,0,3.5,0,9.3s-0.3,9.9-0.5,12.3c-0.8,4.8-2.7,8.3-5.9,10.4c-2.1,1.3-4.5,2.1-6.9,2.1H6.9c-2.1,0-4-0.3-5.1-1.1
		C0.5,53.2,0,52.1,0,50.8v-0.5c0-1.1,0.5-1.9,1.3-2.4c0.8-0.8,2.1-1.1,3.7-1.1h0.8c2.4,0,4.3-1.6,5.1-4.8
		C12.5,38,13.1,32.7,13.1,25.7z" />
	<path d="M30.1,12.4c0-2.1,1.6-2.9,5.1-2.9c1.6,0,2.9,0.3,3.7,1.1c1.1,0.5,1.3,1.1,1.3,1.9c0,0-0.3,1.1-0.5,2.7
		c-0.3,1.9-0.5,3.5-0.5,5.3c0,3.7,0.5,5.6,1.3,5.6s2.9-2.1,6.4-6.1c1.9-2.4,3.2-4.3,4-5.1c0.5-1.1,1.1-1.9,1.6-2.9
		c0.5-1.1,0.8-1.6,1.3-1.9c0.8-0.5,2.1-1.1,3.7-1.1h1.1c1.1,0,1.9,0.3,2.4,0.5s0.8,0.8,0.8,1.6c0,0.5-2.1,3.2-6.1,8
		c-4.3,4.8-6.1,7.7-6.1,9.1c0,0,1.6,2.4,4.5,7.2c3.2,4.5,5.6,8,7.2,10.1c1.9,2.1,2.7,3.7,2.7,4.3c0,1.1-1.1,1.6-3.5,1.6h-1.1
		c-2.1,0-3.7-0.5-4.8-1.6c-0.5-0.5-1.6-2.1-3.2-5.1c-1.6-2.9-3.2-5.3-4.8-7.7c-1.6-2.1-2.9-3.2-3.7-3.2c-1.9,0-2.9,2.4-2.9,6.9
		l0.5,6.1c0,1.6-0.5,2.7-1.6,3.7c-0.8,0.5-1.9,0.8-3.7,0.8s-2.9-0.3-3.7-0.5c-0.5-0.5-1.1-1.3-1.1-2.4c0-0.3,0.3-1.3,0.5-2.9
		c0.5-1.6,0.5-3.7,0.5-6.4v-8.8c0-5.6,0-9.1,0-10.1s-0.3-2.7-0.8-4.5C30.4,13.7,30.1,12.4,30.1,12.4z" />
</svg>