<svg xmlns="http://www.w3.org/2000/svg" viewBox="0 0 22.14 23.92">
    <path
        d="M.37,3.77l9.42,12.7,1.33,1.78a2.57,2.57,0,0,0,3.42.9,2.53,2.53,0,0,0,.89-3.43C11.74,10.73,8.5,5.35,4.3.74A2.53,2.53,0,0,0,.76.74a2.56,2.56,0,0,0,0,3.54c.9,1,2,2.26,2.63,3.14s1.74,2.35,2.55,3.49c1.72,2.45,3.4,4.93,5.18,7.34l4.31-2.53L6,3,4.69,1.25A2.56,2.56,0,0,0,1.27.35,2.53,2.53,0,0,0,.37,3.77Z" />
    <path class="cls-1"
        d="M16.39,19c-.12.5.2-.37.1-.21s.51-.51.12-.18c.15-.12.55-.33.17-.14l-.31.16c.58-.37.36-.14.12-.07l-.47.13-.52.1c-.49.1.57-.05,0,0a20.7,20.7,0,0,1-2.36.1l-1.17,0-.59,0-.39,0c-.26,0-.27,0,0,0h0l-.24-.06-.23-.07c-.25-.09-.2-.07.15.07l-.41-.24c-.44-.25.34.36,0,0,0,0-.34-.34-.33-.35.22.3.26.34.11.12L10,18.09c-.3-.55.08.39,0-.08,0-.18-.11-.36-.16-.53-.1-.37-.2-.74-.28-1.11l-.12-.64c-.12-.66,0,.37,0-.13,0-.32,0-.63,0-.95,0-.5-.13.55,0,.13s-.36.58,0,.1l-3.42.9,2.1,1L6.77,14.62a5.18,5.18,0,0,0,1.59,4.16A7.12,7.12,0,0,0,12,20.37c.73.11,1.46.2,2.2.28l.84.1c.43.05-.74-.12-.12,0l.38.06a7.25,7.25,0,0,1,.78.17l.39.11c.1,0,.54.22.07,0s.23.15.37.22c.33.17-.52-.5-.15-.11l.25.26a2.51,2.51,0,0,0,3.54,0,2.56,2.56,0,0,0,0-3.53c-1.71-2-4.63-2.07-7-2.36-.21,0-.69-.14.17,0-.14,0-.29,0-.43-.06l-.72-.15c-.23-.05-.45-.12-.67-.19-.42-.12.14,0,.25.12a3.41,3.41,0,0,0-.33-.17,2.26,2.26,0,0,0-.26-.16c-.14-.07.53.5.21.14s-.06-.29.11.18a1.35,1.35,0,0,0-.14-.22c-.29-.45.15.54.07.17,0-.09,0-.19-.07-.29-.12-.36,0,.75,0,.13a3.84,3.84,0,0,1,0-.48,2.41,2.41,0,0,0-1.24-2.16l-2.1-1a2.57,2.57,0,0,0-3.42.9c-1,1.46-.67,3.54-.34,5.16a8.12,8.12,0,0,0,2.26,4.65,6.65,6.65,0,0,0,2.59,1.42,13.05,13.05,0,0,0,2.86.31,20.28,20.28,0,0,0,4.92-.33c1.71-.36,3.49-1.39,3.91-3.21A2.5,2.5,0,1,0,16.39,19Z" />
    <path class="cls-1"
        d="M18.31,15.26l-4.63-8L13,6.16,9.59,9.58c.35.26-.35-.29-.12-.09l.2.17a6,6,0,0,1,.45.42c.31.3.59.63.87,1s-.39-.52-.1-.12l.16.22.35.52c.23.37.45.76.66,1.15s.38.75.55,1.14l.11.26c-.3-.65-.12-.3-.06-.14s.16.39.23.59c.32.83.6,1.67.86,2.52a2.5,2.5,0,1,0,4.82-1.33,32.11,32.11,0,0,0-2.26-5.69,14.63,14.63,0,0,0-4.19-4.89,2.25,2.25,0,0,0-1.6-.3,2.39,2.39,0,0,0-1.43.69,2.56,2.56,0,0,0-.39,3l4.63,8L14,17.78a2.5,2.5,0,1,0,4.31-2.52Z" />
    <path class="cls-1"
        d="M20.05,14.52,17.11,7.63l-.41-1-3.42,3.42.1.08-.51-.39a7.67,7.67,0,0,1,1.34,1.33l-.39-.5a7.76,7.76,0,0,1,.94,1.63l-.26-.59a12.72,12.72,0,0,1,.8,3.17l-.09-.67c.08.55.13,1.1.18,1.64a2.64,2.64,0,0,0,.73,1.77,2.49,2.49,0,0,0,1.77.73,2.52,2.52,0,0,0,2.5-2.5,19.67,19.67,0,0,0-.92-5.11,10.49,10.49,0,0,0-1.23-2.46A10.86,10.86,0,0,0,15.8,5.77l-.59-.26a1.89,1.89,0,0,0-1,0,2.33,2.33,0,0,0-1.44.69,3,3,0,0,0-.64,1.1,2.7,2.7,0,0,0,.25,1.93l2.94,6.89.41,1a2.51,2.51,0,0,0,4.57-.6l.09-.67A2.53,2.53,0,0,0,20.05,14.52Z" />
    <path class="cls-1"
        d="M21.3,19.69,21.06,11l0-1.25L16.37,11l.12.25c.1.24.08.18-.09-.2,0,.18.15.37.21.55.11.33.2.67.29,1a6.55,6.55,0,0,0,.2,1.09q-.08-.6,0-.18l0,.32,0,.58c0,.43,0,.85,0,1.28,0,.17,0,.34,0,.51s0,.23,0,.35c.06-.38.06-.43,0-.15a15.51,15.51,0,0,1-.67,2.6,2.51,2.51,0,0,0,1.75,3.07,2.56,2.56,0,0,0,3.07-1.74,15.51,15.51,0,0,0-.53-11.87,2.5,2.5,0,0,0-2.82-1.15A2.56,2.56,0,0,0,16,9.75l.25,8.69,0,1.25a2.5,2.5,0,0,0,5,0Z" />
</svg>