<?xml version="1.0" encoding="utf-8"?>
<!-- Generator: Adobe Illustrator 26.0.1, SVG Export Plug-In . SVG Version: 6.00 Build 0)  -->
<svg version="1.1" id="Layer_1" xmlns="http://www.w3.org/2000/svg" xmlns:xlink="http://www.w3.org/1999/xlink" x="0px" y="0px"
	 viewBox="0 0 24 24" style="enable-background:new 0 0 24 24;" xml:space="preserve">
<g>
	<g>
		<g>
			<path d="M11.6,4.4c2.4,3.1,5.2,5.8,8.4,8.1c-0.2-0.9-0.4-1.7-0.7-2.6c-2.1,3.3-4.1,6.6-6.5,9.7c-0.6,0.8-0.8,1.9,0,2.7
				c0.6,0.6,2,0.8,2.7,0c2.6-3.3,4.9-6.9,7.1-10.5c0.6-0.9,0.1-2-0.7-2.6c-2.9-2.1-5.4-4.7-7.6-7.5c-0.6-0.8-2-0.7-2.7,0
				C10.8,2.5,11,3.6,11.6,4.4L11.6,4.4z"/>
		</g>
	</g>
	<g>
		<g>
			<path d="M1.7,4.4c2.4,3.1,5.2,5.8,8.4,8.1c-0.2-0.9-0.4-1.7-0.7-2.6c-2.1,3.3-4.1,6.6-6.5,9.7c-0.6,0.8-0.8,1.9,0,2.7
				c0.6,0.6,2,0.8,2.7,0c2.6-3.3,4.9-6.9,7.1-10.5c0.6-0.9,0.1-2-0.7-2.6C9.1,7.1,6.6,4.5,4.4,1.7c-0.6-0.8-2-0.7-2.7,0
				C1,2.5,1.1,3.6,1.7,4.4L1.7,4.4z"/>
		</g>
	</g>
</g>
</svg>
