<?xml version="1.0" encoding="utf-8"?>
<!-- Generator: Adobe Illustrator 26.0.1, SVG Export Plug-In . SVG Version: 6.00 Build 0)  -->
<svg version="1.1" id="Layer_1" xmlns="http://www.w3.org/2000/svg" xmlns:xlink="http://www.w3.org/1999/xlink" x="0px"
	y="0px" viewBox="0 0 24 24" style="enable-background:new 0 0 24 24;" xml:space="preserve">
	<path d="M23.9,1.6c0-1-0.9-1.6-2-1.6c-2.7,0.2-5.4,0.5-8.1,0.9c-2.5,0.4-5,0.8-7.5,1.5C6,2.5,5.7,2.6,5.5,2.9l0,0
	C5,3.2,4.7,3.7,4.7,4.5C4.9,8.6,5,12.6,5.1,16.7c-1.4,0-2.9,0.2-3.9,1.3c-1,0.9-1.4,2.4-1.1,3.7c0.5,1.7,2.1,2.4,3.7,2.3
	c1.3-0.1,2.9-0.4,3.8-1.4c2.1-2.2,1.4-6,1.4-8.8c0-2.2,0-4.5-0.1-6.7c3.7-0.6,7.3-1.2,10.9-1.9c0.1,3,0,6-0.1,9
	c-1.2,0.1-2.5,0.5-3.4,1.4c-1,1-1.4,2.5-1,3.9c1,3.1,5.9,3.1,7.5,0.6c0.8-1.2,0.7-2.7,0.8-4c0.1-1.5,0.2-3.1,0.2-4.6
	C23.9,8.6,24,6.9,23.9,4C23.9,3.9,23.9,1.8,23.9,1.6z" />
</svg>