<?xml version="1.0" encoding="utf-8"?>
<!-- Generator: Adobe Illustrator 26.0.1, SVG Export Plug-In . SVG Version: 6.00 Build 0)  -->
<svg version="1.1" id="Layer_1" xmlns="http://www.w3.org/2000/svg" xmlns:xlink="http://www.w3.org/1999/xlink" x="0px"
	y="0px" viewBox="0 0 24 24" style="enable-background:new 0 0 24 24;" xml:space="preserve">
	<path d="M9,13.9c0,2.8,0.7,6.5-1.4,8.7c-0.9,1-2.5,1.3-3.8,1.4c-1.6,0.1-3.2-0.6-3.7-2.3c-0.3-1.3,0.1-2.8,1.1-3.7
	c1-1.1,2.5-1.3,3.9-1.3c0-0.7,0-1.5-0.1-2.2c1.1-0.1,2.2-0.2,3.2-0.4C8.6,14,8.8,14,9,13.9z" />
	<path
		d="M22.6,11.3c0.4-0.1,0.9-0.3,1.3-0.5c0,0.2,0,0.4,0,0.7c0,1.5-0.1,3.1-0.2,4.6c-0.1,1.3,0,2.8-0.8,4
	c-1.6,2.5-6.5,2.5-7.5-0.6c-0.4-1.4,0-2.9,1-3.9c0.9-0.9,2.2-1.3,3.4-1.4c0-0.7,0.1-1.5,0.1-2.2C20.7,11.8,21.7,11.6,22.6,11.3z" />
	<path d="M4.9,9.5c0-1.7-0.1-3.3-0.2-5c0-0.8,0.3-1.3,0.8-1.6C5.7,2.6,6,2.5,6.3,2.4c2.5-0.7,5-1.1,7.5-1.5
	c2.7-0.4,5.4-0.7,8.1-0.9c1.1,0,2,0.6,2,1.6V4c0,0.5,0,1.5,0,1.9c-0.7,0.2-1.4,0.3-1.9,0.5c-0.7,0.2-1.4,0.4-2.2,0.5
	c0-0.5,0-1.2,0-1.8c-3.6,0.7-7.2,1.3-10.9,1.9C9,7.7,9,8.2,9,8.8C8.5,8.9,8,9,7.5,9.2C6.6,9.3,5.8,9.5,4.9,9.5z" />
</svg>