<svg version="1.1" id="Layer_1" xmlns="http://www.w3.org/2000/svg" xmlns:xlink="http://www.w3.org/1999/xlink" x="0px" y="0px"
	 viewBox="0 0 24 24" style="enable-background:new 0 0 24 24;" xml:space="preserve">
<path d="M24,9c0-1,0-2.2-0.5-3.1c-0.9-1.6-3.2-2-4.8-2.4c-1.8-0.4-3.4,0-5.2-0.2c-0.9-0.1-1.8-0.1-2.7,0
	c-0.7,0.1-1.4,0.2-2.1,0.1c-1-0.1-1.9-0.2-2.8-0.2C5,3.3,4.3,3.2,3.5,3.4c-1.8,0.6-2.9,2.2-3,4C0.5,7.5,0.4,7.7,0.4,7.8
	c-0.3,1.4-0.1,2.6-0.1,4c0,1.2-0.1,2.4,0,3.7c0.2,1.5,0.5,3.1,1.6,4.2c0.7,0.8,1.8,0.9,2.8,1c0.2,0,0.5,0,0.7,0
	c0.1,0.1,0.3,0.1,0.4,0.1C6.4,21,7.1,21,7.8,21c1.2,0,2.4-0.1,3.6,0c2.4,0.2,4.8-0.2,7.2-0.3c0.2,0,0.3,0,0.5-0.1c0,0,0,0,0,0
	c0.2,0,0.3,0,0.5,0c2.4-0.3,4-1.9,4.2-4.3c0.1-0.7,0.1-1.4,0.1-2c0-1.1,0.2-2.1,0.2-3.1C24,10.5,24,9.7,24,9z M16.2,12.9
	c-0.8,0.7-1.7,1.1-2.6,1.6c-0.9,0.5-1.9,1-2.8,1.4c-1,0.5-2.1-0.3-1.8-1.4c0,0,0-0.1,0-0.1c0,0,0,0,0,0c0,0,0,0,0,0
	c0-0.1,0-0.2,0-0.3c0-0.2,0-0.4,0-0.6v0c0,0,0,0,0,0c0,0,0-0.1,0-0.1c0,0,0,0,0,0c0-0.1,0-0.2,0-0.3c0-0.2-0.1-0.4-0.1-0.7
	c-0.2-1-0.3-1.9-0.1-2.8c-0.1-0.3,0-0.6,0.1-0.9C9.2,8,10,7.8,10.5,8.1c1,0.5,1.9,1.1,2.9,1.6c0,0,0,0,0.1,0c0,0,0,0,0.1,0
	c0,0,0,0,0,0c0,0,0,0,0,0c0.1,0,0.2,0.1,0.3,0.1c0.3,0.1,0.6,0.2,0.9,0.3c0.5,0.2,0.9,0.5,1.3,0.9C16.6,11.5,16.7,12.4,16.2,12.9z"
	/>
</svg>
