<?xml version="1.0" encoding="utf-8"?>
<!-- Generator: Adobe Illustrator 26.0.1, SVG Export Plug-In . SVG Version: 6.00 Build 0)  -->
<svg version="1.1" id="line" xmlns="http://www.w3.org/2000/svg" xmlns:xlink="http://www.w3.org/1999/xlink" x="0px" y="0px"
	 viewBox="0 0 1908.9 10" style="enable-background:new 0 0 1908.9 10;" xml:space="preserve" fill="currentColor">
<style type="text/css">
	.st0{fill:currentColor;}
</style>
<path class="st0" d="M1910.4,10.1h-897.1c-0.8,0-1.6,0-2.3,0c-0.1,0-0.1,0-0.2,0H-0.5c0.2-1.7-0.2-6.7,0.1-7.3
	c7.4,0.4,16,0.7,22.9,0.7c7.3-0.1,12.3,0,14.9,0.2c0.5,0,3.1,0.3,8,0.9c3.2,0.4,5.8,0.5,7.9,0.4c1.5,0,3.8-0.3,6.8-0.7
	c3-0.5,5.3-0.7,6.8-0.8c1.6,0,3.8,0.1,6.6,0.5c3.3,0.3,5.5,0.5,6.6,0.5c1.4,0,3.2,0,5.3-0.1c1.2-0.1,3-0.2,5.4-0.4
	c2.8-0.1,7.1-0.2,12.9-0.2h67.9c7.6,0,13.3,0,17.1,0.1c1.8,0,4.6,0.1,8.3,0.2c3.2,0.1,6,0.1,8.3,0.1c2.2,0,5.6-0.2,10.1-0.4
	c4-0.2,7.4-0.1,10.1,0.1c0.1,0,0.3,0.1,0.4,0.1h4.3c3.1-0.1,5.4-0.1,6.9-0.1c5.4,0.2,13.6,0.6,24.4,1.3c9.7,0.5,17.8,0.5,24.4,0.1
	c2.9-0.3,7.3-0.6,13.1-1.2c2.9-0.2,7.3-0.4,13.1-0.5c6-0.2,10.8-0.2,14.4,0c2.6,0.2,6.7,0.6,12.4,1.2c5.3,0.6,9.4,0.9,12.3,1
	c2.4,0.1,5.1,0,8.2-0.1c1.3-0.1,4.1-0.2,8.2-0.5c14.7-0.8,31-1.1,48.9-0.9c12.4,0.1,28.7,0.6,48.9,1.4c5.3,0.2,13.4,0.2,24.2-0.2
	c4-0.1,11.6-0.2,22.7-0.4c18.6-0.5,31.9-1.1,40-1.9c3.8-0.4,9.1-0.2,15.8,0.6c7.5,0.8,12.8,1.2,15.9,1.1c3.2-0.1,7.4-0.5,12.6-1.1
	c6.7-0.7,10.9-1.2,12.6-1.3c6.6-0.6,14.2-0.7,22.8-0.5c3.6,0,11.2,0.4,22.8,1.1c31.8,1.8,64.1,2.5,96.9,2.1
	C763.3,5,780.6,4.6,803.6,4c59.1-1.3,118.5-0.8,178.2,1.6c6.9,0.3,12,0.5,15.4,0.6c5.7,0,10.8-0.1,15.4-0.4
	c2.4-0.2,6.6-0.6,12.7-1.2c5.3-0.7,9.5-1,12.6-1.1c3.4-0.1,7.2-0.1,11.5,0.1c2.5,0.1,6.3,0.4,11.4,0.8c0.7,0.1,2.6,0,5.9-0.3
	c3.2-0.3,5.1-0.4,5.8-0.3c12.4,1.1,29.4,1.1,50.9,0.1c24.7-1.1,41.7-1.5,51.1-1.2c3.7,0.2,10.1,0.5,19.4,1.1
	c8.2,0.5,14.7,0.8,19.4,0.9c4.7,0,11.2-0.1,19.5-0.4c9.2-0.4,15.7-0.6,19.4-0.6c5.8,0,13.8,0.2,23.9,0.6c11.4,0.5,19.3,0.7,23.8,0.8
	c7.4,0.1,21.2-0.3,41.2-1.1c17.3-0.7,31.1-0.8,41.2-0.3c2.4,0.1,6,0.4,10.9,0.7c4.4,0.3,8,0.4,11,0.4c4.2,0,9.7-0.2,16.4-0.7
	c9-0.6,14.5-1,16.5-1.1c6.6-0.3,14.3-0.2,23.3,0.1c5.2,0.2,12.9,0.6,23.3,1.1c3.1,0.1,6.6,0.3,10.6,0.4c3.1,0.1,6.7,0.2,10.7,0.1
	c1.7-0.1,5.2,0,10.6,0.1c4.6,0.1,7.5,0.1,8.6,0c13.2-1,21.6-1.6,25.2-1.8c9.5-0.5,17.9-0.4,25.2,0.3c1.8,0.2,5.5,0.6,11.1,1.3
	c4.6,0.6,8.3,1,11.1,1.2c6.6,0.4,14.8,0.1,24.5-0.8c5.4-0.5,13.5-1.4,24.4-2.5c14-1.1,33.4-0.8,58,0.9c27.5,1.9,46.9,2.7,58.1,2.4
	c4.2-0.1,10.8-0.4,19.9-0.9c8.7-0.5,15.4-0.8,20-0.9c2.4,0,12.1,0.2,29,0.6c11.7,0.3,21.4,0,28.9-0.8c3.8-0.4,9.6-1.1,17.3-2.1
	c6.7-0.6,12.4-0.4,17.2,0.7c1.6,0.3,4.1,0.9,7.5,1.7c2.9,0.5,5.3,0.3,7.3-0.6L1910.4,10.1z"/>
</svg>
