<svg version="1.1" id="line" xmlns="http://www.w3.org/2000/svg" xmlns:xlink="http://www.w3.org/1999/xlink" x="0px" y="0px"
	 viewBox="0 0 1908.9 7.1" style="enable-background:new 0 0 1908.9 7.1;" xml:space="preserve" fill="#ffffff">
<path d="M1826.3,5.4c13.8,0.4,24.9,0.1,33.2-0.7c3.2-0.3,8.1-0.9,14.5-1.8c5.6-0.6,10.5-0.8,14.5-0.5c4.4,0.3,10.8,1.5,19.1,3.6
	l1.3-3.9c-2,0.9-4.4,1.1-7.3,0.6c-3.4-0.8-5.9-1.4-7.5-1.7c-4.8-1.1-10.5-1.3-17.2-0.7c-7.7,1-13.5,1.7-17.3,2.1
	c-7.5,0.8-17.2,1.1-28.9,0.8c-16.9-0.4-26.6-0.6-29-0.6c-4.6,0.1-11.3,0.4-20,0.9c-9.1,0.5-15.7,0.8-19.9,0.9
	c-11.2,0.3-30.6-0.5-58.1-2.4c-24.6-1.7-44-2-58-0.9c-10.9,1.1-19,2-24.4,2.5c-9.7,0.9-17.9,1.2-24.5,0.8c-2.8-0.2-6.5-0.6-11.1-1.2
	c-5.6-0.7-9.3-1.1-11.1-1.3c-7.3-0.7-15.7-0.8-25.2-0.3c-3.6,0.2-12,0.8-25.2,1.8c-1.1,0.1-4,0.1-8.6,0c-5.4-0.1-8.9-0.2-10.6-0.1
	c-4,0.1-7.6,0-10.7-0.1c-4-0.1-7.5-0.3-10.6-0.4c-10.4-0.5-18.1-0.9-23.3-1.1c-9-0.3-16.7-0.4-23.3-0.1c-2,0.1-7.5,0.5-16.5,1.1
	c-6.7,0.5-12.2,0.7-16.4,0.7c-3,0-6.6-0.1-11-0.4c-4.9-0.3-8.5-0.6-10.9-0.7c-10.1-0.5-23.9-0.4-41.2,0.3c-20,0.8-33.8,1.2-41.2,1.1
	c-4.5-0.1-12.4-0.3-23.8-0.8c-10.1-0.4-18.1-0.6-23.9-0.6c-3.7,0-10.2,0.2-19.4,0.6c-8.3,0.3-14.8,0.4-19.5,0.4
	c-4.7-0.1-11.2-0.4-19.4-0.9c-9.3-0.6-15.7-0.9-19.4-1.1c-9.4-0.3-26.4,0.1-51.1,1.2c-21.5,1-38.5,1-50.9-0.1
	c-0.7-0.1-2.6,0-5.8,0.3c-3.3,0.3-5.2,0.4-5.9,0.3c-5.1-0.4-8.9-0.7-11.4-0.8c-4.3-0.2-8.1-0.2-11.5-0.1c-3.1,0.1-7.3,0.4-12.6,1.1
	c-6.1,0.6-10.3,1-12.7,1.2c-4.6,0.3-9.7,0.4-15.4,0.4c-3.4-0.1-8.5-0.3-15.4-0.6c-59.7-2.4-119.1-2.9-178.2-1.6
	c-23,0.6-40.3,1-51.8,1.1c-32.8,0.4-65.1-0.3-96.9-2.1c-11.6-0.7-19.2-1.1-22.8-1.1c-8.6-0.2-16.2-0.1-22.8,0.5
	c-1.7,0.1-5.9,0.6-12.6,1.3c-5.2,0.6-9.4,1-12.6,1.1c-3.1,0.1-8.4-0.3-15.9-1.1c-6.7-0.8-12-1-15.8-0.6c-8.1,0.8-21.4,1.4-40,1.9
	c-11.1,0.2-18.7,0.3-22.7,0.4c-10.8,0.4-18.9,0.4-24.2,0.2c-20.2-0.8-36.5-1.3-48.9-1.4c-17.9-0.2-34.2,0.1-48.9,0.9
	c-4.1,0.3-6.9,0.4-8.2,0.5c-3.1,0.1-5.8,0.2-8.2,0.1c-2.9-0.1-7-0.4-12.3-1c-5.7-0.6-9.8-1-12.4-1.2c-3.6-0.2-8.4-0.2-14.4,0
	c-5.8,0.1-10.2,0.3-13.1,0.5c-5.8,0.6-10.2,0.9-13.1,1.2c-6.6,0.4-14.7,0.4-24.4-0.1c-10.8-0.7-19-1.1-24.4-1.3
	c-1.5,0-3.8,0-6.9,0.1L226,2.5c-0.1,0-0.3-0.1-0.4-0.1c-2.7-0.2-6.1-0.3-10.1-0.1c-4.5,0.2-7.9,0.4-10.1,0.4c-2.3,0-5.1,0-8.3-0.1
	c-3.7-0.1-6.5-0.2-8.3-0.2c-3.8-0.1-9.5-0.1-17.1-0.1h-67.9c-5.8,0-10.1,0.1-12.9,0.2c-2.4,0.2-4.2,0.3-5.4,0.4
	c-2.1,0.1-3.9,0.1-5.3,0.1c-1.1,0-3.3-0.2-6.6-0.5C70.8,2.1,68.6,2,67,2c-1.5,0.1-3.8,0.3-6.8,0.8c-3,0.4-5.3,0.7-6.8,0.7
	c-2.1,0.1-4.7,0-7.9-0.4c-4.9-0.6-7.5-0.9-8-0.9c-2.6-0.2-7.6-0.3-14.9-0.2C15.7,2,8.6,1.8,1.2,1.4C0.8,2.1,0.4,2.8,0,3.5
	C6.7,4,13.3,4.2,20,4.2c1.9,0,4.8,0,8.7-0.1c3.3,0,6.2,0.1,8.6,0.3c0.5,0,2.9,0.3,7.1,0.7c2.9,0.3,5.2,0.4,7.1,0.4
	c1.9,0,4.3-0.1,7.3-0.4c4.1-0.4,6.5-0.6,7.3-0.6c2.3-0.1,7-0.1,14.2,0.1c1.3,0,5,0.1,11.3,0.1C138,4.5,167.8,4.5,181,4.5l44.1,0.2
	c0.4,0,2-0.1,4.9-0.4c2.3,0,11.8,0.5,28.4,1.4c11.5,0.6,20.9,0.6,28.3,0.1c0.1,0,4.3-0.4,12.5-1.1c10.8-0.9,20.8-0.9,30.1-0.2
	c1.3,0.1,4.4,0.4,9.3,0.9c3.8,0.3,7,0.6,9.4,0.6c2.5,0.1,5.5,0.1,8.9,0.1c0.4,0,3.4-0.1,8.9-0.3c20.7-0.9,37.6-1.2,50.9-1
	c1.9,0,7.9,0.2,17.9,0.4c16.9,0.5,28.8,0.9,35.5,1.4c4.5,0.3,7.8,0.4,9.9,0.4c3.7,0.1,7-0.1,9.8-0.6l12.6-0.1
	c8.7-0.1,13.8-0.1,15.2-0.2c2.2-0.1,8-0.4,17.3-1.1c9.4-0.6,16.8-0.8,22.1-0.6c0.8,0,5.4,0.3,13.8,0.8c5.6,0.3,10.2,0.4,13.8,0.3
	c3.7-0.1,8.5-0.4,14.6-0.9c7.4-0.7,12.2-1.1,14.6-1.3c4.6-0.3,9.8-0.4,15.7-0.3c3.1,0.1,8.4,0.2,15.8,0.5l40.2,1.5
	c22.3,0.9,39.1,1.3,50.3,1.4c8,0,17.4-0.1,28.2-0.4c0.1,0,9.5-0.3,28.1-0.8C854.4,3.6,916.9,4,979.5,6.5c8,0.3,13.2,0.5,15.8,0.6
	c5.9,0.1,11.1,0.1,15.7-0.2c4.5-0.2,11.2-0.8,20.1-1.6c8-0.6,14.7-0.8,20.1-0.4c2.5,0.2,6.2,0.5,11.2,1c0.9,0,3.3-0.1,7.2-0.2
	c3.4-0.2,5.8-0.2,7.2,0c11.6,1.5,26,1.6,43.2,0.4c22.8-1.6,37.2-2.4,43.2-2.4c6.2,0,15.5,0.4,28.1,1c12.4,0.7,21.8,1,28.1,1
	c4.5,0,11.3-0.1,20.5-0.4c9-0.3,15.9-0.4,20.6-0.4c5.1,0,12.7,0.3,22.8,0.8c10.2,0.5,17.8,0.7,22.8,0.8c6.5,0,18.6-0.4,36.2-1.2
	c15.2-0.7,27.2-0.9,36.1-0.5c0.5,0,4.4,0.3,11.6,0.8c4.7,0.3,8.5,0.5,11.6,0.5c3.8,0,8.5-0.1,14.2-0.5c8.9-0.6,13.7-1,14.2-1
	c8.5-0.4,24.4-0.3,47.8,0.5c5.1,0.2,10.8,0.5,17.2,0.8c4.9,0.2,9.4,0.2,13.7-0.1h7.6c6.8,0.5,14.7,0.3,23.8-0.6
	c12.6-1.2,20.7-1.7,24.3-1.6c3.6,0.1,8.4,0.6,14.3,1.4c7.2,1,12,1.6,14.4,1.8c7.3,0.6,16.2,0.3,26.9-0.7c6-0.5,14.9-1.4,26.9-2.6
	c14.1-1,34.1-0.7,60,1.1c27.6,1.9,47.7,2.6,60.1,2.1c2.7-0.1,7-0.3,12.9-0.7c5.6-0.4,9.9-0.6,12.9-0.7
	C1798.2,4.9,1809.3,5,1826.3,5.4z"/>
</svg>
