<svg xmlns="http://www.w3.org/2000/svg" viewBox="0 0 42.93 2.95"><g id="Layer_2" data-name="Layer 2"><g id="Layer_1-2" data-name="Layer 1"><g id="Layer14_0_FILL" data-name="Layer14 0 FILL"><path d="M41.93.54c-.07,0-.52,0-1.34,0a22.38,22.38,0,0,1-3-.19,30.59,30.59,0,0,0-5.49.09,38.18,38.18,0,0,1-5.45.12L24,.25A20.59,20.59,0,0,0,21.28,0,16.24,16.24,0,0,0,18.9.12L16.6.4c-1.37.16-3.07.27-5.11.32A76.18,76.18,0,0,1,1.89.61C.88.49.27.67.06,1.17a.87.87,0,0,0,0,.72,1.11,1.11,0,0,0,.48.57,3.11,3.11,0,0,0,1.48.34,91.53,91.53,0,0,0,14.07-.3c2-.2,3.59-.3,4.63-.31s2.59.13,4.91.32a43.91,43.91,0,0,0,4.92.21A30.33,30.33,0,0,1,36,2.35c.3,0,1.2.12,2.72.31a9.48,9.48,0,0,0,2.68.06,2.12,2.12,0,0,0,1.08-.47.87.87,0,0,0,.42-.91C42.85.92,42.52.65,41.93.54Z"/></g></g></g></svg>